<svg width="149" height="142" viewBox="0 0 149 142" fill="none" xmlns="http://www.w3.org/2000/svg">
<g clip-path="url(#clip0)">
<path d="M131.363 0.339111H54.7695C50.6015 0.339111 47.2109 3.70306 47.2109 7.83842V13.3067H37.6367C33.4687 13.3067 30.0781 16.6706 30.0781 20.806V60.8179C30.0781 62.1987 31.206 63.3177 32.5977 63.3177C33.9893 63.3177 35.1172 62.1987 35.1172 60.8179V20.806C35.1172 19.4272 36.247 18.3062 37.6367 18.3062H114.23C115.62 18.3062 116.75 19.4272 116.75 20.806V120.828C116.75 122.207 115.62 123.328 114.23 123.328H37.6367C36.247 123.328 35.1172 122.207 35.1172 120.828V80.8161C35.1172 79.4354 33.9893 78.3163 32.5977 78.3163C31.206 78.3163 30.0781 79.4354 30.0781 80.8161V120.828C30.0781 124.963 33.4687 128.327 37.6367 128.327H114.23C118.399 128.327 121.789 124.963 121.789 120.828V115.36H131.363C135.531 115.36 138.922 111.996 138.922 107.861V7.83842C138.922 3.70306 135.531 0.339111 131.363 0.339111ZM133.883 107.861C133.883 109.239 132.753 110.36 131.363 110.36H121.789V20.806C121.789 16.6706 118.399 13.3067 114.23 13.3067H52.25V7.83842C52.25 6.45964 53.3799 5.33865 54.7695 5.33865H131.363C132.753 5.33865 133.883 6.45964 133.883 7.83842V107.861Z" fill="#856883" stroke="#856883" stroke-width="0.5"/>
<path d="M32.5977 73.3177C33.26 73.3177 33.9106 73.0501 34.379 72.5853C34.8475 72.1195 35.1172 71.4751 35.1172 70.8179C35.1172 70.1597 34.8475 69.5153 34.379 69.0505C33.9106 68.5827 33.26 68.3181 32.5977 68.3181C31.9353 68.3181 31.2847 68.5827 30.8163 69.0505C30.3478 69.5153 30.0781 70.1597 30.0781 70.8179C30.0781 71.4751 30.3478 72.1195 30.8163 72.5853C31.2847 73.0501 31.9353 73.3177 32.5977 73.3177Z" fill="#856883" stroke="#856883" stroke-width="0.5"/>
<path d="M46.707 89.9004V99.8995C46.707 101.28 47.8349 102.399 49.2266 102.399H102.641C104.032 102.399 105.16 101.28 105.16 99.8995V89.9004C105.16 88.5206 104.032 87.4006 102.641 87.4006H49.2266C47.8349 87.4006 46.707 88.5206 46.707 89.9004ZM51.7461 92.4002H100.121V97.3997H51.7461V92.4002Z" fill="#856883" stroke="#856883" stroke-width="0.5"/>
<path d="M61.5928 108.523C60.2011 108.523 59.0732 109.643 59.0732 111.023C59.0732 112.404 60.2011 113.523 61.5928 113.523H90.3154C91.7071 113.523 92.835 112.404 92.835 111.023C92.835 109.643 91.7071 108.523 90.3154 108.523H61.5928Z" fill="#856883" stroke="#856883" stroke-width="0.5"/>
<path d="M75.9544 82.0668C90.9476 82.0668 103.146 69.9644 103.146 55.0888C103.146 40.2132 90.9476 28.1108 75.9544 28.1108C60.9613 28.1108 48.7632 40.2132 48.7632 55.0888C48.7632 69.9644 60.9613 82.0668 75.9544 82.0668ZM62.2368 72.3343C64.9118 67.3143 70.1231 64.1554 75.9544 64.1554C81.7848 64.1554 86.9971 67.3143 89.6721 72.3343C85.8967 75.2969 81.1303 77.0673 75.9544 77.0673C70.7786 77.0673 66.0121 75.2969 62.2368 72.3343ZM70.6506 53.8946V51.9544C70.6506 49.0533 73.0304 46.6931 75.9544 46.6931C78.8785 46.6931 81.2573 49.0533 81.2573 51.9544V53.8946C81.2573 56.7957 78.8785 59.1558 75.9544 59.1558C73.0304 59.1558 70.6506 56.7957 70.6506 53.8946ZM75.9544 33.1104C88.1692 33.1104 98.1066 42.9698 98.1066 55.0888C98.1066 60.2114 96.3302 64.9307 93.3569 68.6726C91.051 65.0235 87.6762 62.2395 83.7276 60.6518C85.3249 58.8453 86.2963 56.4813 86.2963 53.8946V51.9544C86.2963 46.2957 81.6568 41.6926 75.9544 41.6926C70.252 41.6926 65.6116 46.2957 65.6116 51.9544V53.8946C65.6116 56.4813 66.5839 58.8453 68.1813 60.6518C64.2317 62.2395 60.8579 65.0235 58.552 68.6726C55.5787 64.9307 53.8022 60.2114 53.8022 55.0888C53.8022 42.9698 63.7396 33.1104 75.9544 33.1104Z" fill="#856883" stroke="#856883" stroke-width="0.5"/>
</g>
<path d="M11.3377 97.4986L3.41959 96.3565L2.31339 104.026L9.94392 105.376L11.3377 97.4986ZM13.0777 92.0386L20.0836 95.9008L20.094 95.882L20.1042 95.8632L13.0777 92.0386ZM16.2877 88.1086L21.3324 94.3175L21.3432 94.3087L16.2877 88.1086ZM20.7277 85.7386L23.1191 93.3728L23.1474 93.3639L23.1757 93.3548L20.7277 85.7386ZM31.5277 85.7986L28.8013 93.3197L28.8575 93.34L28.914 93.3596L31.5277 85.7986ZM35.6677 88.1686L30.3333 94.1305L30.3626 94.1567L30.3922 94.1826L35.6677 88.1686ZM38.2777 91.7086L30.9583 94.9377L30.9781 94.9825L30.9984 95.0271L38.2777 91.7086ZM38.7277 99.7786L31.069 97.4665L31.0548 97.5138L31.0411 97.5613L38.7277 99.7786ZM37.4077 102.509L30.988 97.735L30.988 97.735L37.4077 102.509ZM35.2477 104.489L30.9935 97.7134L30.9935 97.7135L35.2477 104.489ZM32.3377 105.839L29.8078 98.2491L6.40778 106.049L29.9314 113.468L32.3377 105.839ZM38.1577 109.589L44.5211 104.74V104.74L38.1577 109.589ZM38.8777 121.649L31.6709 118.175L31.6709 118.175L38.8777 121.649ZM35.6377 125.849L40.7233 132.024L40.7502 132.002L40.7768 131.98L35.6377 125.849ZM30.8977 128.399L28.4441 120.784L28.4316 120.788L28.4192 120.792L30.8977 128.399ZM15.2977 126.299L20.3579 120.102L15.2977 126.299ZM12.2377 122.699L19.1231 118.625L12.2377 122.699ZM10.0777 117.779L7.02483 110.384L0.195821 113.203L2.46399 120.235L10.0777 117.779ZM13.3477 116.429L16.4005 123.823L16.4186 123.816L16.4368 123.808L13.3477 116.429ZM15.7477 116.159L13.8569 123.932L13.9778 123.961L14.0996 123.987L15.7477 116.159ZM17.3977 117.359L24.512 113.7L24.4876 113.652L24.4626 113.605L17.3977 117.359ZM18.5677 119.429L11.7613 123.633L11.8054 123.704L11.8511 123.775L18.5677 119.429ZM20.1277 121.259L14.7759 127.205L14.8316 127.255L14.8882 127.304L20.1277 121.259ZM22.2277 122.549L19.0985 129.911L19.2083 129.958L19.3193 130.001L22.2277 122.549ZM28.4377 122.429L31.5701 129.79L31.6359 129.762L31.7012 129.733L28.4377 122.429ZM30.7777 120.809L25.0345 115.239L24.9903 115.285L24.9469 115.331L30.7777 120.809ZM32.1877 118.619L24.735 115.71L24.7157 115.76L24.697 115.81L32.1877 118.619ZM32.3377 113.339L24.5872 115.321L24.5929 115.343L24.5987 115.365L32.3377 113.339ZM30.9577 111.149L25.7513 117.223L25.7513 117.223L30.9577 111.149ZM27.9277 109.739L25.9034 117.478L25.9178 117.482L25.9322 117.486L27.9277 109.739ZM22.6777 109.229H14.6777V117.229H22.6777V109.229ZM22.6777 103.949L22.5898 95.9491L14.6777 96.036V103.949H22.6777ZM27.2077 103.439L29.269 111.168H29.269L27.2077 103.439ZM30.0577 102.119L35.0552 108.366L35.0658 108.357L35.0763 108.349L30.0577 102.119ZM31.5577 100.049L39.1085 102.691L39.1085 102.691L31.5577 100.049ZM30.2677 92.7586L35.7152 86.8999L35.7152 86.8999L30.2677 92.7586ZM23.2777 91.5586L25.7457 99.1684L25.838 99.1384L25.9295 99.1063L23.2777 91.5586ZM21.2677 92.6086L26.1028 98.9821L26.119 98.9698L26.1351 98.9574L21.2677 92.6086ZM18.8977 96.1486L26.4016 98.9218L26.5168 98.61L26.6058 98.2897L18.8977 96.1486ZM17.5477 97.9786L13.7699 90.9267L13.716 90.9556L13.6625 90.9853L17.5477 97.9786ZM15.2377 98.1886L13.8439 106.066L13.9087 106.078L13.9737 106.088L15.2377 98.1886ZM19.2557 98.6406C19.4423 97.347 19.7645 96.4796 20.0836 95.9008L6.07173 88.1763C4.67082 90.7175 3.83301 93.4902 3.41959 96.3565L19.2557 98.6406ZM20.1042 95.8632C20.5109 95.1159 20.9329 94.642 21.3324 94.3175L11.2429 81.8997C9.08238 83.6551 7.36438 85.8012 6.0511 88.214L20.1042 95.8632ZM21.3432 94.3087C21.8252 93.9157 22.3936 93.6 23.1191 93.3728L18.3362 78.1044C15.7417 78.9171 13.3501 80.1815 11.2322 81.9084L21.3432 94.3087ZM23.1757 93.3548C23.9981 93.0905 24.9658 92.9286 26.1277 92.9286V76.9286C23.4495 76.9286 20.8172 77.3067 18.2796 78.1223L23.1757 93.3548ZM26.1277 92.9286C27.3573 92.9286 28.2135 93.1066 28.8013 93.3197L34.254 78.2775C31.6418 77.3305 28.898 76.9286 26.1277 76.9286V92.9286ZM28.914 93.3596C29.6508 93.6143 30.0751 93.8995 30.3333 94.1305L41.002 82.2066C38.9802 80.3977 36.6445 79.1029 34.1413 78.2376L28.914 93.3596ZM30.3922 94.1826C30.6744 94.4302 30.8383 94.6657 30.9583 94.9377L45.597 88.4795C44.517 86.0314 42.9409 83.9069 40.9432 82.1545L30.3922 94.1826ZM30.9984 95.0271C31.1165 95.2862 31.2077 95.6168 31.2077 96.1186H47.2077C47.2077 93.4603 46.6788 90.851 45.5569 88.3901L30.9984 95.0271ZM31.2077 96.1186C31.2077 96.8995 31.115 97.3143 31.069 97.4665L46.3863 102.091C46.9803 100.123 47.2077 98.0977 47.2077 96.1186H31.2077ZM31.0411 97.5613C31.0077 97.6771 30.9802 97.7385 30.9704 97.7587C30.9612 97.7776 30.9652 97.7655 30.988 97.735L43.8274 107.282C45.0407 105.65 45.8786 103.853 46.4142 101.996L31.0411 97.5613ZM30.988 97.735C30.9938 97.7271 31.0007 97.7186 31.0083 97.7102C31.0158 97.7019 31.0224 97.6955 31.0269 97.6913C31.0313 97.6872 31.0321 97.6869 31.0278 97.6902C31.0234 97.6935 31.0125 97.7015 30.9935 97.7134L39.5018 111.264C41.1633 110.22 42.6295 108.893 43.8274 107.282L30.988 97.735ZM30.9935 97.7135C30.7343 97.8762 30.3545 98.0669 29.8078 98.2491L34.8675 113.428C36.4808 112.89 38.041 112.181 39.5018 111.264L30.9935 97.7135ZM29.9314 113.468C31.4135 113.936 31.7702 114.405 31.7942 114.437L44.5211 104.74C41.9851 101.412 38.4618 99.3816 34.7439 98.209L29.9314 113.468ZM31.7942 114.437C31.8106 114.458 32.0777 114.765 32.0777 115.919H48.0777C48.0777 111.992 47.0647 108.079 44.5211 104.74L31.7942 114.437ZM32.0777 115.919C32.0777 117.082 31.8662 117.77 31.6709 118.175L46.0844 125.122C47.4891 122.207 48.0777 119.075 48.0777 115.919H32.0777ZM31.6709 118.175C31.3443 118.853 30.9549 119.335 30.4985 119.718L40.7768 131.98C43.0404 130.082 44.811 127.764 46.0844 125.122L31.6709 118.175ZM30.552 119.673C30.0264 120.106 29.3549 120.491 28.4441 120.784L33.3512 136.013C36.0404 135.147 38.5289 133.831 40.7233 132.024L30.552 119.673ZM28.4192 120.792C27.4925 121.094 26.4435 121.269 25.2277 121.269V137.269C28.0118 137.269 30.7429 136.863 33.3761 136.005L28.4192 120.792ZM25.2277 121.269C23.6314 121.269 22.5605 121.082 21.887 120.874L17.1683 136.163C19.7348 136.955 22.464 137.269 25.2277 137.269V121.269ZM21.887 120.874C21.1589 120.65 20.687 120.371 20.3579 120.102L10.2374 132.495C12.3083 134.186 14.6564 135.387 17.1683 136.163L21.887 120.874ZM20.3579 120.102C19.9325 119.755 19.5156 119.289 19.1231 118.625L5.35218 126.772C6.63975 128.948 8.26278 130.882 10.2374 132.495L20.3579 120.102ZM19.1231 118.625C18.6344 117.799 18.1416 116.719 17.6913 115.323L2.46399 120.235C3.21368 122.559 4.16095 124.758 5.35218 126.772L19.1231 118.625ZM13.1305 125.173L16.4005 123.823L10.2948 109.034L7.02483 110.384L13.1305 125.173ZM16.4368 123.808C16.0815 123.957 15.1193 124.239 13.8569 123.932L17.6385 108.385C14.896 107.718 12.3338 108.18 10.2586 109.049L16.4368 123.808ZM14.0996 123.987C13.5324 123.868 12.7826 123.6 12.0248 123.048C11.2533 122.487 10.6945 121.793 10.3327 121.112L24.4626 113.605C22.9223 110.706 20.2864 108.939 17.3957 108.33L14.0996 123.987ZM10.2834 121.017C10.7403 121.906 11.2332 122.778 11.7613 123.633L25.374 115.225C25.0621 114.72 24.775 114.211 24.512 113.7L10.2834 121.017ZM11.8511 123.775C12.6723 125.044 13.6508 126.192 14.7759 127.205L25.4794 115.312C25.4046 115.245 25.343 115.173 25.2842 115.083L11.8511 123.775ZM14.8882 127.304C16.1755 128.42 17.6031 129.276 19.0985 129.911L25.3568 115.186C25.3016 115.162 25.2824 115.15 25.29 115.154C25.2936 115.157 25.3028 115.163 25.3165 115.173C25.3303 115.183 25.3475 115.196 25.3671 115.213L14.8882 127.304ZM19.3193 130.001C21.2807 130.767 23.2821 131.029 25.1377 131.029V115.029C25.0477 115.029 24.9812 115.025 24.9364 115.022C24.8917 115.018 24.8711 115.015 24.8722 115.015C24.8736 115.015 24.9712 115.032 25.136 115.096L19.3193 130.001ZM25.1377 131.029C27.2301 131.029 29.4373 130.697 31.5701 129.79L25.3052 115.067C25.4303 115.014 25.4967 115.004 25.4766 115.008C25.4538 115.012 25.3471 115.029 25.1377 115.029V131.029ZM31.7012 129.733C33.4776 128.939 35.1694 127.818 36.6084 126.286L24.9469 115.331C25.0405 115.231 25.1227 115.167 25.174 115.131C25.2234 115.097 25.2305 115.099 25.1741 115.125L31.7012 129.733ZM36.5209 126.378C37.868 124.988 38.9632 123.335 39.6783 121.428L24.697 115.81C24.7501 115.668 24.8156 115.541 24.8837 115.435C24.951 115.331 25.0081 115.267 25.0345 115.239L36.5209 126.378ZM39.6403 121.527C40.2952 119.849 40.6677 118.045 40.6677 116.159H24.6677C24.6677 116.045 24.6791 115.942 24.6957 115.856C24.7121 115.772 24.7303 115.722 24.735 115.71L39.6403 121.527ZM40.6677 116.159C40.6677 114.565 40.5001 112.928 40.0766 111.312L24.5987 115.365C24.6152 115.429 24.6677 115.672 24.6677 116.159H40.6677ZM40.0881 111.356C39.4442 108.839 38.061 106.701 36.164 105.075L25.7513 117.223C25.5347 117.037 25.2848 116.769 25.0593 116.411C24.8324 116.051 24.6777 115.675 24.5872 115.321L40.0881 111.356ZM36.164 105.075C34.1991 103.39 31.9062 102.502 29.9231 101.991L25.9322 117.486C26.2189 117.56 26.3241 117.61 26.2999 117.599C26.2761 117.588 26.056 117.484 25.7513 117.223L36.164 105.075ZM29.9519 101.999C27.7069 101.412 25.1864 101.229 22.6777 101.229V117.229C24.569 117.229 25.5484 117.385 25.9034 117.478L29.9519 101.999ZM30.6777 109.229V103.949H14.6777V109.229H30.6777ZM22.7656 111.948C24.9734 111.924 27.2022 111.72 29.269 111.168L25.1464 95.7087C24.8131 95.7976 24.0219 95.9333 22.5898 95.9491L22.7656 111.948ZM29.269 111.168C31.1538 110.666 33.2243 109.83 35.0552 108.366L25.0601 95.8716C25.2882 95.6892 25.4441 95.6158 25.458 95.6094C25.4669 95.6052 25.4476 95.6147 25.3945 95.6334C25.3416 95.6522 25.2601 95.6784 25.1464 95.7087L29.269 111.168ZM35.0763 108.349C36.849 106.921 38.2911 105.027 39.1085 102.691L24.0068 97.4058C24.1244 97.0696 24.2919 96.7516 24.4947 96.4719C24.6946 96.196 24.8932 96.006 25.039 95.8885L35.0763 108.349ZM39.1085 102.691C39.7224 100.937 39.9777 99.1506 39.9777 97.4086H23.9777C23.9777 97.4997 23.971 97.5379 23.972 97.5317C23.9725 97.5286 23.9747 97.5154 23.9803 97.4933C23.9858 97.4711 23.9943 97.4415 24.0068 97.4058L39.1085 102.691ZM39.9777 97.4086C39.9777 93.8716 38.9475 89.9054 35.7152 86.8999L24.8201 98.6173C24.4134 98.2391 24.1636 97.8085 24.0418 97.4772C23.9352 97.1875 23.9777 97.1171 23.9777 97.4086H39.9777ZM35.7152 86.8999C32.7838 84.1742 29.1595 83.1686 25.7077 83.1686V99.1686C25.9186 99.1686 25.8626 99.1981 25.6387 99.12C25.3902 99.0334 25.0885 98.8668 24.8201 98.6173L35.7152 86.8999ZM25.7077 83.1686C24.0336 83.1686 22.3151 83.4174 20.6258 84.0109L25.9295 99.1063C25.8295 99.1414 25.7523 99.1579 25.7079 99.165C25.6646 99.1719 25.6618 99.1686 25.7077 99.1686V83.1686ZM20.8096 83.9488C19.2294 84.4613 17.7434 85.2299 16.4002 86.2597L26.1351 98.9574C26.0695 99.0077 25.9978 99.0535 25.9243 99.0919C25.8511 99.1301 25.7891 99.1543 25.7457 99.1684L20.8096 83.9488ZM16.4326 86.2351C15.1487 87.209 14.041 88.3814 13.1413 89.731L26.4541 98.6062C26.3544 98.7557 26.2266 98.8881 26.1028 98.9821L16.4326 86.2351ZM13.1413 89.731C12.2544 91.0613 11.608 92.501 11.1895 94.0074L26.6058 98.2897C26.598 98.3177 26.5827 98.3645 26.5556 98.424C26.5284 98.4839 26.4942 98.546 26.4541 98.6062L13.1413 89.731ZM11.3937 93.3754C11.4123 93.3251 11.5372 92.9945 11.8674 92.5469C12.2127 92.0788 12.8204 91.4354 13.7699 90.9267L21.3254 105.03C24.3345 103.418 25.7377 100.718 26.4016 98.9218L11.3937 93.3754ZM13.6625 90.9853C14.5792 90.4761 15.3865 90.3302 15.8409 90.2889C16.2867 90.2484 16.5346 90.2943 16.5016 90.289L13.9737 106.088C15.7005 106.364 18.6025 106.544 21.4328 104.972L13.6625 90.9853ZM16.6314 90.3109L12.7314 89.6209L9.94392 105.376L13.8439 106.066L16.6314 90.3109Z" fill="#F2F4F5"/>
<path d="M11.3377 97.4986C11.6377 95.4186 12.2177 93.5986 13.0777 92.0386C13.9377 90.4586 15.0077 89.1486 16.2877 88.1086C17.5877 87.0486 19.0677 86.2586 20.7277 85.7386C22.4077 85.1986 24.2077 84.9286 26.1277 84.9286C28.1277 84.9286 29.9277 85.2186 31.5277 85.7986C33.1477 86.3586 34.5277 87.1486 35.6677 88.1686C36.8077 89.1686 37.6777 90.3486 38.2777 91.7086C38.8977 93.0686 39.2077 94.5386 39.2077 96.1186C39.2077 97.4986 39.0477 98.7186 38.7277 99.7786C38.4277 100.819 37.9877 101.729 37.4077 102.509C36.8277 103.289 36.1077 103.949 35.2477 104.489C34.3877 105.029 33.4177 105.479 32.3377 105.839C34.9377 106.659 36.8777 107.909 38.1577 109.589C39.4377 111.269 40.0777 113.379 40.0777 115.919C40.0777 118.079 39.6777 119.989 38.8777 121.649C38.0777 123.309 36.9977 124.709 35.6377 125.849C34.2777 126.969 32.6977 127.819 30.8977 128.399C29.1177 128.979 27.2277 129.269 25.2277 129.269C23.0477 129.269 21.1477 129.019 19.5277 128.519C17.9077 128.019 16.4977 127.279 15.2977 126.299C14.0977 125.319 13.0777 124.119 12.2377 122.699C11.3977 121.279 10.6777 119.639 10.0777 117.779L13.3477 116.429C14.2077 116.069 15.0077 115.979 15.7477 116.159C16.5077 116.319 17.0577 116.719 17.3977 117.359C17.7577 118.059 18.1477 118.749 18.5677 119.429C19.0077 120.109 19.5277 120.719 20.1277 121.259C20.7277 121.779 21.4277 122.209 22.2277 122.549C23.0477 122.869 24.0177 123.029 25.1377 123.029C26.3977 123.029 27.4977 122.829 28.4377 122.429C29.3777 122.009 30.1577 121.469 30.7777 120.809C31.4177 120.149 31.8877 119.419 32.1877 118.619C32.5077 117.799 32.6677 116.979 32.6677 116.159C32.6677 115.119 32.5577 114.179 32.3377 113.339C32.1177 112.479 31.6577 111.749 30.9577 111.149C30.2577 110.549 29.2477 110.079 27.9277 109.739C26.6277 109.399 24.8777 109.229 22.6777 109.229V103.949C24.4977 103.929 26.0077 103.759 27.2077 103.439C28.4077 103.119 29.3577 102.679 30.0577 102.119C30.7777 101.539 31.2777 100.849 31.5577 100.049C31.8377 99.2486 31.9777 98.3686 31.9777 97.4086C31.9777 95.3686 31.4077 93.8186 30.2677 92.7586C29.1277 91.6986 27.6077 91.1686 25.7077 91.1686C24.8277 91.1686 24.0177 91.2986 23.2777 91.5586C22.5377 91.7986 21.8677 92.1486 21.2677 92.6086C20.6877 93.0486 20.1977 93.5686 19.7977 94.1686C19.3977 94.7686 19.0977 95.4286 18.8977 96.1486C18.5577 97.0686 18.1077 97.6786 17.5477 97.9786C17.0077 98.2786 16.2377 98.3486 15.2377 98.1886L11.3377 97.4986Z" fill="#E0004D"/>
<defs>
<clipPath id="clip0">
<rect width="129" height="127.988" fill="white" transform="translate(20 0.339111)"/>
</clipPath>
</defs>
</svg>
