<svg width="140" height="140" viewBox="0 0 140 140" fill="none" xmlns="http://www.w3.org/2000/svg">
<g clip-path="url(#clip0)">
<path d="M98.4375 0.300781H41.5625C35.5244 0.308199 30.6325 5.16179 30.625 11.1525V128.351C30.6325 134.341 35.5244 139.195 41.5625 139.202H98.4375C104.476 139.195 109.368 134.341 109.375 128.351V11.1525C109.368 5.16179 104.476 0.308199 98.4375 0.300781ZM35 19.8338H105V108.818H35V19.8338ZM41.5625 4.64146H98.4375C102.062 4.64146 105 7.55679 105 11.1525V15.4931H35V11.1525C35 7.55679 37.9384 4.64146 41.5625 4.64146ZM98.4375 134.862H41.5625C37.9384 134.862 35 131.946 35 128.351V113.158H105V128.351C105 131.946 102.062 134.862 98.4375 134.862Z" fill="#856883" stroke="#856883"/>
<path d="M70.5 116.383C65.8059 116.383 62 119.937 62 124.32C62 128.703 65.8059 132.257 70.5 132.257C75.1941 132.257 79 128.703 79 124.32C79 119.937 75.1941 116.383 70.5 116.383ZM70.5 128.289C68.153 128.289 66.25 126.512 66.25 124.32C66.25 122.128 68.153 120.351 70.5 120.351C72.847 120.351 74.75 122.128 74.75 124.32C74.75 126.512 72.847 128.289 70.5 128.289Z" fill="#856883" stroke="#856883"/>
<path d="M90.9276 55.4833C88.8619 47.3456 81.5207 41.6167 73.0623 41.5425C64.6039 41.4683 57.1613 47.0669 54.9503 55.1664C50.5305 54.2943 45.9952 55.9877 43.2502 59.5336C40.5062 63.0795 40.0287 67.8642 42.0186 71.8753C44.0096 75.8864 48.1229 78.4287 52.6293 78.4329H61.2501C62.4581 78.4329 63.4376 77.4611 63.4376 76.2626C63.4376 75.064 62.4581 74.0922 61.2501 74.0922H52.6293C49.9323 74.1378 47.4212 72.7368 46.0593 70.4277C44.6975 68.1175 44.6975 65.2583 46.0593 62.9491C47.4212 60.6389 49.9323 59.2379 52.6293 59.2835C53.691 59.2771 54.742 59.4986 55.7087 59.9352C56.3442 60.2256 57.0801 60.197 57.6911 59.8589C58.301 59.5209 58.7111 58.9137 58.7955 58.2248C59.6853 51.2952 65.5524 46.0559 72.5913 45.9043C79.6313 45.7528 85.7216 50.7346 86.9137 57.6197C87.0685 58.5247 87.781 59.2358 88.6921 59.3948C92.2104 60.0327 94.7782 63.0583 94.8134 66.6063C94.8487 70.1543 92.3418 73.2296 88.8363 73.9365C88.3545 74.035 87.8632 74.0827 87.3708 74.0774H78.7501C77.542 74.0774 76.5626 75.0492 76.5626 76.2477C76.5626 77.4463 77.542 78.4181 78.7501 78.4181H87.3708C88.1644 78.4234 88.9559 78.345 89.7335 78.186C95.0228 77.1167 98.9139 72.634 99.1949 67.2856C99.4758 61.9381 96.076 57.0771 90.9276 55.4685V55.4833Z" fill="#856883" stroke="#856883"/>
<path d="M79.5704 85.42L72.1876 91.2793V67.5815C72.1876 66.3829 71.2081 65.4111 70.0001 65.4111C68.792 65.4111 67.8126 66.3829 67.8126 67.5815V91.2793L60.4298 85.42C59.4866 84.6708 58.1087 84.8223 57.3547 85.758C56.5995 86.6938 56.7522 88.0609 57.6954 88.809L68.6329 97.4904C68.729 97.554 68.8294 97.6091 68.9352 97.6557C69.0057 97.7013 69.0783 97.7436 69.1531 97.7818C69.4201 97.8994 69.7085 97.962 70.0001 97.9662C70.2927 97.9598 70.5811 97.8941 70.8492 97.7754C70.8791 97.7617 70.9165 97.7754 70.9475 97.7511C71.0425 97.6981 71.1333 97.6377 71.2188 97.5709C71.2701 97.5476 71.3192 97.5211 71.3673 97.4904L82.3048 88.809C83.2479 88.0609 83.4006 86.6938 82.6455 85.758C81.8914 84.8223 80.5135 84.6708 79.5704 85.42Z" fill="#856883" stroke="#856883"/>
<path d="M43.75 126.366H41.5625C40.3545 126.366 39.375 127.338 39.375 128.536C39.375 129.735 40.3545 130.707 41.5625 130.707H43.75C44.958 130.707 45.9375 129.735 45.9375 128.536C45.9375 127.338 44.958 126.366 43.75 126.366Z" fill="#856883" stroke="#856883"/>
<path d="M98.625 118.677C97.417 118.677 96.4375 119.649 96.4375 120.847V127.358H89.875C88.667 127.358 87.6875 128.33 87.6875 129.528C87.6875 130.727 88.667 131.699 89.875 131.699H96.4375C98.8536 131.699 100.812 129.755 100.812 127.358V120.847C100.812 119.649 99.833 118.677 98.625 118.677Z" fill="#856883" stroke="#856883"/>
<path d="M42.5277 130.781C43.3277 130.781 43.9577 131.011 44.4177 131.471C44.8977 131.911 45.1377 132.501 45.1377 133.241V137.681H15.3777V135.221C15.3777 134.721 15.4777 134.201 15.6777 133.661C15.8977 133.101 16.2377 132.601 16.6977 132.161L29.8677 118.961C30.9677 117.841 31.9477 116.771 32.8077 115.751C33.6877 114.731 34.4177 113.721 34.9977 112.721C35.5777 111.721 36.0177 110.711 36.3177 109.691C36.6377 108.651 36.7977 107.561 36.7977 106.421C36.7977 105.381 36.6477 104.471 36.3477 103.691C36.0477 102.891 35.6177 102.221 35.0577 101.681C34.5177 101.141 33.8577 100.741 33.0777 100.481C32.3177 100.201 31.4577 100.061 30.4977 100.061C29.6177 100.061 28.7977 100.191 28.0377 100.451C27.2977 100.691 26.6377 101.041 26.0577 101.501C25.4777 101.941 24.9877 102.461 24.5877 103.061C24.1877 103.661 23.8877 104.321 23.6877 105.041C23.3477 105.961 22.9077 106.571 22.3677 106.871C21.8277 107.171 21.0477 107.241 20.0277 107.081L16.1277 106.391C16.4277 104.311 17.0077 102.491 17.8677 100.931C18.7277 99.3514 19.7977 98.0414 21.0777 97.0014C22.3777 95.9414 23.8577 95.1514 25.5177 94.6314C27.1977 94.0914 28.9977 93.8214 30.9177 93.8214C32.9177 93.8214 34.7477 94.1214 36.4077 94.7214C38.0677 95.3014 39.4877 96.1314 40.6677 97.2114C41.8477 98.2914 42.7677 99.5914 43.4277 101.111C44.0877 102.631 44.4177 104.321 44.4177 106.181C44.4177 107.781 44.1777 109.261 43.6977 110.621C43.2377 111.981 42.6077 113.281 41.8077 114.521C41.0277 115.761 40.1077 116.961 39.0477 118.121C37.9877 119.281 36.8777 120.461 35.7177 121.661L25.9377 131.651C26.8777 131.371 27.8077 131.161 28.7277 131.021C29.6677 130.861 30.5577 130.781 31.3977 130.781H42.5277Z" fill="#E0004D"/>
<path d="M44.4177 131.471L38.7608 137.128L38.8837 137.251L39.0119 137.369L44.4177 131.471ZM45.1377 137.681V145.681H53.1377V137.681H45.1377ZM15.3777 137.681H7.37766V145.681H15.3777V137.681ZM15.6777 133.661L8.23164 130.736L8.20294 130.809L8.17567 130.883L15.6777 133.661ZM16.6977 132.161L22.2274 137.943L22.295 137.878L22.3609 137.812L16.6977 132.161ZM29.8677 118.961L35.5309 124.612L35.5532 124.59L35.5752 124.567L29.8677 118.961ZM32.8077 115.751L26.7504 110.526L26.7207 110.56L26.6915 110.595L32.8077 115.751ZM34.9977 112.721L28.0774 108.708L28.0774 108.708L34.9977 112.721ZM36.3177 109.691L28.6714 107.339L28.6568 107.386L28.6427 107.434L36.3177 109.691ZM36.3477 103.691L28.857 106.5L28.8688 106.532L28.8809 106.563L36.3477 103.691ZM35.0577 101.681L29.4008 107.338L29.4522 107.39L29.5046 107.44L35.0577 101.681ZM33.0777 100.481L30.312 107.988L30.4293 108.031L30.5479 108.071L33.0777 100.481ZM28.0377 100.451L30.5057 108.061L30.5666 108.041L30.6272 108.021L28.0377 100.451ZM26.0577 101.501L30.8928 107.875L30.9614 107.823L31.0288 107.769L26.0577 101.501ZM23.6877 105.041L31.1916 107.815L31.3068 107.503L31.3958 107.183L23.6877 105.041ZM20.0277 107.081L18.6339 114.959L18.7108 114.973L18.7879 114.985L20.0277 107.081ZM16.1277 106.391L8.20959 105.249L7.10339 112.919L14.7339 114.269L16.1277 106.391ZM17.8677 100.931L24.8736 104.794L24.884 104.775L24.8942 104.756L17.8677 100.931ZM21.0777 97.0014L26.1224 103.21L26.1332 103.202L21.0777 97.0014ZM25.5177 94.6314L27.9091 102.266L27.9374 102.257L27.9657 102.248L25.5177 94.6314ZM36.4077 94.7214L33.6883 102.245L33.7285 102.26L33.7689 102.274L36.4077 94.7214ZM43.4277 101.111L50.7658 97.9251L50.7658 97.9251L43.4277 101.111ZM43.6977 110.621L36.1537 107.959L36.1362 108.008L36.1194 108.058L43.6977 110.621ZM41.8077 114.521L35.0853 110.184L35.0604 110.223L35.036 110.262L41.8077 114.521ZM39.0477 118.121L44.9533 123.518L44.9533 123.518L39.0477 118.121ZM35.7177 121.661L41.4343 127.258L41.452 127.24L41.4696 127.222L35.7177 121.661ZM25.9377 131.651L20.221 126.055L-1.40229 148.143L28.2215 139.318L25.9377 131.651ZM28.7277 131.021L29.9312 138.93L30.0007 138.92L30.07 138.908L28.7277 131.021ZM42.5277 138.781C42.1676 138.781 41.572 138.73 40.8566 138.469C40.1116 138.197 39.3808 137.748 38.7608 137.128L50.0745 125.815C47.784 123.524 44.9317 122.781 42.5277 122.781V138.781ZM39.0119 137.369C38.3985 136.806 37.8839 136.086 37.5473 135.258C37.2202 134.454 37.1377 133.74 37.1377 133.241H53.1377C53.1377 130.597 52.19 127.744 49.8235 125.574L39.0119 137.369ZM37.1377 133.241V137.681H53.1377V133.241H37.1377ZM45.1377 129.681H15.3777V145.681H45.1377V129.681ZM23.3777 137.681V135.221H7.37766V137.681H23.3777ZM23.3777 135.221C23.3777 135.802 23.2598 136.224 23.1796 136.44L8.17567 130.883C7.69552 132.179 7.37766 133.641 7.37766 135.221H23.3777ZM23.1237 136.587C22.8951 137.168 22.556 137.628 22.2274 137.943L11.1679 126.38C9.91927 127.575 8.9002 129.034 8.23164 130.736L23.1237 136.587ZM22.3609 137.812L35.5309 124.612L24.2044 113.311L11.0344 126.511L22.3609 137.812ZM35.5752 124.567C36.7931 123.327 37.913 122.107 38.9238 120.908L26.6915 110.595C25.9823 111.436 25.1422 112.356 24.1601 113.356L35.5752 124.567ZM38.8649 120.977C40.0178 119.641 41.0517 118.229 41.9179 116.735L28.0774 108.708C27.7837 109.214 27.3575 109.822 26.7504 110.526L38.8649 120.977ZM41.9179 116.735C42.7911 115.23 43.4972 113.633 43.9926 111.949L28.6427 107.434C28.5381 107.79 28.3643 108.213 28.0774 108.708L41.9179 116.735ZM43.9639 112.044C44.5294 110.206 44.7977 108.321 44.7977 106.421H28.7977C28.7977 106.802 28.7459 107.097 28.6714 107.339L43.9639 112.044ZM44.7977 106.421C44.7977 104.631 44.5414 102.71 43.8144 100.82L28.8809 106.563C28.8167 106.396 28.7961 106.287 28.7917 106.26C28.7875 106.235 28.7977 106.283 28.7977 106.421H44.7977ZM43.8383 100.882C43.1617 99.0782 42.1096 97.3679 40.6107 95.9226L29.5046 107.44C29.1258 107.075 28.9336 106.705 28.857 106.5L43.8383 100.882ZM40.7145 96.0245C39.2301 94.5401 37.4735 93.5139 35.6075 92.8919L30.5479 108.071C30.2419 107.969 29.8053 107.743 29.4008 107.338L40.7145 96.0245ZM35.8433 92.9747C34.0505 92.3142 32.2307 92.0614 30.4977 92.0614V108.061C30.6847 108.061 30.5848 108.089 30.312 107.988L35.8433 92.9747ZM30.4977 92.0614C28.8205 92.0614 27.1175 92.311 25.4482 92.8821L30.6272 108.021C30.5576 108.045 30.5044 108.056 30.4753 108.06C30.4471 108.065 30.4523 108.061 30.4977 108.061V92.0614ZM25.5696 92.8416C23.9686 93.3609 22.4517 94.1507 21.0865 95.2334L31.0288 107.769C30.8236 107.932 30.6267 108.022 30.5057 108.061L25.5696 92.8416ZM21.2226 95.1279C19.9387 96.1018 18.831 97.2742 17.9313 98.6238L31.2441 107.499C31.1444 107.649 31.0166 107.781 30.8928 107.875L21.2226 95.1279ZM17.9313 98.6238C17.0444 99.9541 16.398 101.394 15.9795 102.9L31.3958 107.183C31.388 107.21 31.3727 107.257 31.3456 107.317C31.3184 107.377 31.2842 107.439 31.2441 107.499L17.9313 98.6238ZM16.1837 102.268C16.193 102.243 16.3054 101.937 16.6144 101.509C16.935 101.064 17.5268 100.409 18.4825 99.8781L26.2528 113.865C29.2041 112.225 30.5568 109.532 31.1916 107.815L16.1837 102.268ZM18.4825 99.8781C19.4138 99.3607 20.227 99.22 20.6626 99.1809C21.093 99.1423 21.3228 99.1867 21.2674 99.178L18.7879 114.985C20.4895 115.252 23.4108 115.444 26.2528 113.865L18.4825 99.8781ZM21.4214 99.2037L17.5214 98.5137L14.7339 114.269L18.6339 114.959L21.4214 99.2037ZM24.0457 107.533C24.2323 106.24 24.5545 105.372 24.8736 104.794L10.8617 97.0691C9.46082 99.6103 8.62301 102.383 8.20959 105.249L24.0457 107.533ZM24.8942 104.756C25.3009 104.009 25.7229 103.535 26.1224 103.21L16.0329 90.7925C13.8724 92.5479 12.1544 94.694 10.8411 97.1068L24.8942 104.756ZM26.1332 103.202C26.6152 102.808 27.1836 102.493 27.9091 102.266L23.1262 86.9972C20.5317 87.8099 18.1401 89.0743 16.0222 90.8012L26.1332 103.202ZM27.9657 102.248C28.7881 101.983 29.7558 101.821 30.9177 101.821V85.8214C28.2395 85.8214 25.6072 86.1995 23.0696 87.0152L27.9657 102.248ZM30.9177 101.821C32.1125 101.821 33.0081 101.999 33.6883 102.245L39.127 87.1978C36.4872 86.2436 33.7228 85.8214 30.9177 85.8214V101.821ZM33.7689 102.274C34.5079 102.532 34.962 102.834 35.2664 103.113L46.0689 91.31C44.0133 89.4286 41.6274 88.0709 39.0464 87.1691L33.7689 102.274ZM35.2664 103.113C35.5872 103.406 35.8608 103.771 36.0896 104.298L50.7658 97.9251C49.6745 95.412 48.1081 93.1764 46.0689 91.31L35.2664 103.113ZM36.0896 104.298C36.2625 104.696 36.4177 105.283 36.4177 106.181H52.4177C52.4177 103.359 51.9129 100.567 50.7658 97.9251L36.0896 104.298ZM36.4177 106.181C36.4177 106.973 36.3007 107.542 36.1537 107.959L51.2416 113.284C52.0546 110.98 52.4177 108.59 52.4177 106.181H36.4177ZM36.1194 108.058C35.8764 108.777 35.538 109.483 35.0853 110.184L48.53 118.858C49.6773 117.08 50.5989 115.186 51.2759 113.185L36.1194 108.058ZM35.036 110.262C34.5278 111.07 33.9031 111.892 33.142 112.725L44.9533 123.518C46.3122 122.031 47.5276 120.453 48.5793 118.781L35.036 110.262ZM33.142 112.725C32.1355 113.826 31.0769 114.952 29.9658 116.101L41.4696 127.222C42.6784 125.971 43.8398 124.736 44.9533 123.518L33.142 112.725ZM30.001 116.065L20.221 126.055L31.6543 137.248L41.4343 127.258L30.001 116.065ZM28.2215 139.318C28.8263 139.138 29.3955 139.012 29.9312 138.93L27.5241 123.112C26.2199 123.311 24.929 123.604 23.6538 123.984L28.2215 139.318ZM30.07 138.908C30.6248 138.814 31.063 138.781 31.3977 138.781V122.781C30.0524 122.781 28.7105 122.909 27.3853 123.135L30.07 138.908ZM31.3977 138.781H42.5277V122.781H31.3977V138.781Z" fill="#F2F4F5"/>
<path d="M44.1477 132.131H52.1477V124.131H44.1477V132.131ZM44.1477 137.681V145.681H52.1477V137.681H44.1477ZM20.1477 137.681H12.1477V145.681H20.1477V137.681ZM20.1477 132.131V124.131H12.1477V132.131H20.1477ZM28.9377 132.131V140.131H36.9377V132.131H28.9377ZM29.0277 103.751L37.0149 104.204L38.0585 85.7667L23.8946 97.6153L29.0277 103.751ZM22.7877 108.971L27.6992 115.286L27.8115 115.199L27.9207 115.107L22.7877 108.971ZM21.7077 109.511L23.0979 117.39L23.2713 117.359L23.4431 117.321L21.7077 109.511ZM20.7177 109.511L19.1487 117.356L19.196 117.365L19.2433 117.374L20.7177 109.511ZM19.9077 109.211L15.4701 115.868L15.6696 116.001L15.8767 116.122L19.9077 109.211ZM19.3677 108.701L26.0241 104.264L25.9311 104.124L25.8323 103.989L19.3677 108.701ZM17.0277 105.491L11.8453 99.3969L6.19032 104.206L10.563 110.204L17.0277 105.491ZM30.2577 94.2414V86.2414H27.3161L25.0753 88.1469L30.2577 94.2414ZM36.3477 94.2414H44.3477V86.2414H36.3477V94.2414ZM36.3477 132.131H28.3477V140.131H36.3477V132.131ZM36.1477 132.131V137.681H52.1477V132.131H36.1477ZM44.1477 129.681H20.1477V145.681H44.1477V129.681ZM28.1477 137.681V132.131H12.1477V137.681H28.1477ZM20.1477 140.131H28.9377V124.131H20.1477V140.131ZM36.9377 132.131V106.841H20.9377V132.131H36.9377ZM36.9377 106.841C36.9377 106.001 36.9629 105.122 37.0149 104.204L21.0404 103.299C20.9724 104.501 20.9377 105.682 20.9377 106.841H36.9377ZM23.8946 97.6153L17.6546 102.835L27.9207 115.107L34.1607 109.887L23.8946 97.6153ZM17.8761 102.657C18.235 102.377 18.9355 101.932 19.9722 101.702L23.4431 117.321C25.1998 116.931 26.6204 116.125 27.6992 115.286L17.8761 102.657ZM20.3174 101.633C20.8675 101.536 21.5098 101.521 22.192 101.648L19.2433 117.374C20.5656 117.622 21.8678 117.607 23.0979 117.39L20.3174 101.633ZM22.2866 101.667C22.766 101.763 23.342 101.953 23.9386 102.301L15.8767 116.122C16.9533 116.75 18.0693 117.14 19.1487 117.356L22.2866 101.667ZM24.3452 102.555C24.7071 102.796 25.3982 103.325 26.0241 104.264L12.7113 113.139C13.5772 114.438 14.6282 115.307 15.4701 115.868L24.3452 102.555ZM25.8323 103.989L23.4923 100.779L10.563 110.204L12.903 113.414L25.8323 103.989ZM22.21 111.586L35.44 100.336L25.0753 88.1469L11.8453 99.3969L22.21 111.586ZM30.2577 102.241H36.3477V86.2414H30.2577V102.241ZM28.3477 94.2414V132.131H44.3477V94.2414H28.3477ZM36.3477 140.131H44.1477V124.131H36.3477V140.131Z" fill="#F2F4F5"/>
<path d="M44.1477 132.131V137.681H20.1477V132.131H28.9377V106.841C28.9377 105.841 28.9677 104.811 29.0277 103.751L22.7877 108.971C22.4277 109.251 22.0677 109.431 21.7077 109.511C21.3677 109.571 21.0377 109.571 20.7177 109.511C20.4177 109.451 20.1477 109.351 19.9077 109.211C19.6677 109.051 19.4877 108.881 19.3677 108.701L17.0277 105.491L30.2577 94.2414H36.3477V132.131H44.1477Z" fill="#E0004D"/>
</g>
<defs>
<clipPath id="clip0">
<rect width="140" height="138.902" fill="white" transform="translate(0 0.300781)"/>
</clipPath>
</defs>
</svg>
