<svg width="1440" height="695" viewBox="0 0 1440 695" fill="none" xmlns="http://www.w3.org/2000/svg" xmlns:xlink="http://www.w3.org/1999/xlink">
<g mask="url(#mask0)">
<path d="M-760.601 471.553C-1620.44 135.164 -2295.98 -551.983 -2614.67 -1416.68C-2627.48 -1455.07 -2645.15 -1495.36 -2656.04 -1538.57C-2749.66 -1825.58 -2587.43 -2134.9 -2298.02 -2227.54C-2008.61 -2320.19 -1696.53 -2159.15 -1602.91 -1872.14C-1595.99 -1847.18 -1584.21 -1820.31 -1572.44 -1793.45C-1366.79 -1223.37 -918.397 -769.746 -350.027 -547.387C218.343 -325.029 853.254 -354.837 1400.58 -630.343C1674.24 -768.096 2002.51 -661.924 2141.62 -390.506C2280.73 -119.088 2173.86 206.323 1900.19 344.076C1067.58 758.35 99.2411 807.942 -760.601 471.553Z" fill="#E0004D"/>
</g>
</svg>
