<svg width="1440" height="1196" viewBox="0 0 1440 1196" fill="none" xmlns="http://www.w3.org/2000/svg">
<path d="M1219 0.492338C2328.77 0.492242 3352.54 221.172 4092.39 758.301C4123.74 782.532 4197.21 893.015 4228.55 921.285C4460.54 1103.02 4380.81 1287.35 4098.66 1436.78C3816.51 1586.21 3396.43 1557.94 3164.44 1376.2C3145.63 1360.05 3120.55 1343.89 3095.47 1327.74C2612.69 972.345 1876.05 668.194 1142.47 668.194C408.891 668.194 -428.027 935.373 -917.081 1290.77C-1161.61 1468.46 -1495.74 1639.85 -1771.61 1482.35C-2047.49 1324.84 -1941.04 1026.29 -1696.51 848.591C-950.394 311.462 109.222 0.492435 1219 0.492338Z" fill="#F2F4F5"/>
</svg>