<svg width="173" height="140" viewBox="0 0 173 140" fill="none" xmlns="http://www.w3.org/2000/svg">
<g clip-path="url(#clip0)">
<path fill-rule="evenodd" clip-rule="evenodd" d="M136.322 81.0757H147.317C156.024 81.0757 163.109 88.1046 163.109 96.7442C163.109 105.384 156.024 112.412 147.317 112.412H136.322H87.0423L89.8469 119.258C90.5141 120.887 90.2046 122.721 89.0387 124.046C87.8727 125.37 86.082 125.922 84.3651 125.485L83.7446 125.326L80.6824 137.163C80.5022 137.86 80.0502 138.457 79.4259 138.824C79.001 139.073 78.5195 139.202 78.0339 139.202C77.8064 139.202 77.578 139.174 77.3541 139.117L68.0547 136.748C66.5921 136.376 65.7106 134.898 66.086 133.446L69.1479 121.61L68.5275 121.452C66.8106 121.015 65.5088 119.676 65.1298 117.958C64.7508 116.24 65.3699 114.484 66.7455 113.375L67.9402 112.412H58.6837C49.9761 112.412 42.8916 105.384 42.8916 96.7442C42.8916 88.1046 49.9758 81.0757 58.6837 81.0757H136.322ZM80.4579 119.814C81.168 119.397 81.9987 119.28 82.7974 119.484L84.1799 119.836L81.1385 112.412L80.0152 109.67L76.6134 112.412L71.4309 116.589L72.8156 116.942C73.6124 117.144 74.2837 117.643 74.7039 118.348C75.1242 119.052 75.2423 119.877 75.037 120.669L72.0625 132.167L76.0651 133.187L79.0398 121.688C79.2444 120.896 79.748 120.23 80.4579 119.814ZM139.056 106.987H84.8192L83.691 104.234C83.3645 103.437 82.6771 102.841 81.8376 102.628C80.9976 102.413 80.1062 102.607 79.4336 103.149L74.6719 106.987H58.6837C52.9913 106.987 48.3604 102.392 48.3604 96.7448C48.3604 91.097 52.9916 86.5022 58.6837 86.5022H139.056H147.316C153.009 86.5022 157.64 91.097 157.64 96.7448C157.64 102.392 153.008 106.987 147.316 106.987H139.056Z" fill="#856883"/>
<path d="M59.5179 98.3044C59.5862 98.4699 59.671 98.6273 59.7694 98.7738C59.8706 98.923 59.9855 99.0613 60.1112 99.1861C60.237 99.3112 60.3765 99.4251 60.5269 99.5225C60.6745 99.6202 60.8331 99.7043 60.9972 99.7721C61.164 99.84 61.3335 99.8915 61.5085 99.9268C61.6862 99.962 61.864 99.981 62.0444 99.981C62.2222 99.981 62.3999 99.962 62.5776 99.9268C62.7526 99.8915 62.9249 99.84 63.089 99.7721C63.253 99.7043 63.4144 99.6202 63.562 99.5225C63.7097 99.4251 63.8519 99.3112 63.9776 99.1861C64.1034 99.0613 64.2183 98.923 64.3167 98.7738C64.4151 98.6273 64.4999 98.4699 64.5683 98.3044C64.6366 98.1417 64.6886 97.971 64.7241 97.7974C64.7597 97.6235 64.7788 97.4444 64.7788 97.2684C64.7788 97.092 64.7597 96.9127 64.7241 96.7366C64.6886 96.5657 64.6366 96.3948 64.5683 96.2293C64.4999 96.0663 64.4151 95.9092 64.3167 95.7627C64.2183 95.6132 64.1034 95.4748 63.9776 95.35C63.8519 95.2252 63.7097 95.1113 63.562 95.0109C63.4144 94.9132 63.253 94.8291 63.089 94.7613C62.9249 94.6935 62.7526 94.642 62.5776 94.6067C61.689 94.4306 60.7456 94.7179 60.1112 95.35C59.9855 95.4748 59.8706 95.6132 59.7694 95.7627C59.671 95.9092 59.5862 96.0663 59.5179 96.2293C59.4495 96.3948 59.3976 96.5657 59.362 96.7366C59.3265 96.9127 59.3101 97.092 59.3101 97.2684C59.3101 97.4444 59.3265 97.6238 59.362 97.7974C59.3976 97.971 59.4495 98.1419 59.5179 98.3044Z" fill="#856883"/>
<path d="M72.9866 98.3045C73.055 98.47 73.1397 98.6273 73.2382 98.7738C73.3394 98.9231 73.4542 99.0614 73.58 99.1862C73.7058 99.3113 73.8452 99.4252 73.9956 99.5226C74.1433 99.6203 74.3019 99.7044 74.4659 99.7722C74.6327 99.84 74.805 99.8916 74.9773 99.9268C75.155 99.9621 75.3355 99.9811 75.5132 99.9811C75.6909 99.9811 75.8714 99.9621 76.0464 99.9268C76.2214 99.8916 76.3937 99.84 76.5577 99.7722C76.7245 99.7044 76.8831 99.6203 77.0308 99.5226C77.1812 99.4252 77.3206 99.3113 77.4464 99.1862C77.5722 99.0614 77.687 98.9231 77.7855 98.7738C77.8839 98.6273 77.9687 98.47 78.037 98.3045C78.1054 98.1417 78.1573 97.9711 78.1929 97.7975C78.2284 97.6236 78.2476 97.4445 78.2476 97.2684C78.2476 97.0921 78.2284 96.9128 78.1929 96.7367C78.1573 96.5658 78.1054 96.3949 78.037 96.2294C77.9687 96.0663 77.8839 95.9093 77.7855 95.7628C77.687 95.6133 77.5722 95.4749 77.4464 95.3501C76.812 94.718 75.8687 94.4304 74.9773 94.6068C74.805 94.6421 74.6327 94.6936 74.4659 94.7614C74.3019 94.8292 74.1433 94.9133 73.9956 95.011C73.8452 95.1114 73.7058 95.2253 73.58 95.3501C73.4542 95.4749 73.3394 95.6133 73.2382 95.7628C73.1397 95.9093 73.055 96.0663 72.9866 96.2294C72.9183 96.3949 72.8663 96.5658 72.8308 96.7367C72.7952 96.9128 72.7788 97.0921 72.7788 97.2684C72.7788 97.4445 72.7952 97.6238 72.8308 97.7975C72.8663 97.9711 72.9183 98.142 72.9866 98.3045Z" fill="#856883"/>
<path d="M86.4581 98.3045C86.5265 98.47 86.6112 98.6273 86.7097 98.7738C86.8081 98.9231 86.923 99.0614 87.0487 99.1862C87.1745 99.3113 87.314 99.4252 87.4644 99.5226C87.612 99.6203 87.7706 99.7044 87.9374 99.7722C88.1015 99.84 88.2737 99.8916 88.4487 99.9268C88.6237 99.9621 88.8042 99.9811 88.9819 99.9811C89.1597 99.9811 89.3401 99.9621 89.5151 99.9268C89.6901 99.8916 89.8624 99.84 90.0265 99.7722C90.1933 99.7044 90.3519 99.6203 90.4995 99.5226C90.6499 99.4252 90.7894 99.3113 90.9151 99.1862C91.0409 99.0614 91.1558 98.9231 91.2542 98.7738C91.3526 98.6273 91.4374 98.47 91.5058 98.3045C91.5741 98.1417 91.6261 97.9711 91.6616 97.7975C91.6972 97.6236 91.7163 97.4445 91.7163 97.2684C91.7163 97.0921 91.6972 96.9128 91.6616 96.7367C91.6288 96.5658 91.5741 96.3949 91.5058 96.2294C91.4374 96.0663 91.3526 95.9093 91.2542 95.7628C91.1558 95.6133 91.0409 95.4749 90.9151 95.3501C90.2808 94.718 89.3347 94.4304 88.4487 94.6068C88.2737 94.6421 88.1015 94.6936 87.9347 94.7614C87.7706 94.8292 87.612 94.9133 87.4644 95.011C87.314 95.1114 87.1745 95.2253 87.0487 95.3501C86.923 95.4749 86.8081 95.6133 86.7097 95.7628C86.6112 95.9093 86.5265 96.0663 86.4581 96.2294C86.3897 96.3949 86.3351 96.5658 86.3022 96.7367C86.2667 96.9128 86.2476 97.0921 86.2476 97.2684C86.2476 97.4445 86.2667 97.6238 86.3022 97.7975C86.3351 97.9711 86.3897 98.142 86.4581 98.3045Z" fill="#856883"/>
<path d="M99.9269 98.3045C99.9952 98.47 100.08 98.6273 100.178 98.7738C100.277 98.9231 100.392 99.0614 100.517 99.1862C100.643 99.3113 100.783 99.4252 100.933 99.5226C101.081 99.6203 101.239 99.7044 101.406 99.7722C101.57 99.84 101.742 99.8916 101.918 99.9268C102.093 99.9621 102.273 99.9811 102.451 99.9811C102.628 99.9811 102.809 99.9621 102.984 99.9268C103.159 99.8916 103.331 99.84 103.495 99.7722C103.662 99.7044 103.821 99.6203 103.968 99.5226C104.119 99.4252 104.258 99.3113 104.384 99.1862C104.51 99.0614 104.625 98.9231 104.723 98.7738C104.821 98.6273 104.906 98.47 104.975 98.3045C105.043 98.1417 105.098 97.9711 105.13 97.7975C105.166 97.6236 105.185 97.4445 105.185 97.2684C105.185 97.0921 105.166 96.9128 105.13 96.7367C105.098 96.5658 105.043 96.3949 104.975 96.2294C104.906 96.0663 104.821 95.9093 104.723 95.7628C104.625 95.6133 104.51 95.4749 104.384 95.3501C103.75 94.718 102.803 94.4304 101.918 94.6068C101.742 94.6421 101.57 94.6936 101.406 94.7614C101.239 94.8292 101.081 94.9133 100.933 95.011C100.783 95.1114 100.643 95.2253 100.517 95.3501C100.392 95.4749 100.277 95.6133 100.178 95.7628C100.08 95.9093 99.9952 96.0663 99.9269 96.2294C99.8585 96.3949 99.8065 96.5658 99.771 96.7367C99.7355 96.9128 99.7163 97.0921 99.7163 97.2684C99.7163 97.4445 99.7355 97.6238 99.771 97.7975C99.8065 97.9711 99.8585 98.142 99.9269 98.3045Z" fill="#856883"/>
<path d="M113.396 98.3063C113.464 98.4718 113.549 98.6292 113.647 98.7757C113.746 98.9249 113.86 99.0632 113.986 99.188C114.112 99.3131 114.251 99.427 114.402 99.5244C114.55 99.6221 114.708 99.7062 114.875 99.774C115.039 99.8419 115.211 99.8934 115.386 99.9287C115.561 99.9639 115.742 99.9829 115.919 99.9829C116.097 99.9829 116.278 99.9639 116.455 99.9287C116.628 99.8934 116.8 99.8419 116.967 99.774C117.131 99.7062 117.289 99.6221 117.437 99.5244C117.587 99.427 117.727 99.3131 117.853 99.188C117.978 99.0632 118.093 98.9249 118.194 98.7757C118.293 98.6292 118.378 98.4718 118.446 98.3063C118.514 98.1436 118.566 97.9729 118.602 97.7993C118.637 97.6254 118.654 97.4463 118.654 97.2702C118.654 97.0939 118.637 96.9146 118.602 96.7385C118.566 96.5676 118.514 96.3967 118.446 96.2312C118.378 96.0681 118.293 95.9111 118.194 95.7646C118.093 95.6151 117.978 95.4767 117.853 95.3519C117.727 95.2271 117.587 95.1132 117.437 95.0128C117.289 94.9151 117.131 94.831 116.967 94.7632C116.8 94.6954 116.628 94.6438 116.455 94.6086C116.103 94.538 115.739 94.538 115.386 94.6086C115.211 94.6438 115.039 94.6954 114.875 94.7632C114.708 94.831 114.55 94.9151 114.402 95.0128C114.251 95.1132 114.112 95.2271 113.986 95.3519C113.86 95.4767 113.746 95.6151 113.647 95.7646C113.549 95.9111 113.464 96.0681 113.396 96.2312C113.327 96.3967 113.275 96.5676 113.24 96.7385C113.204 96.9146 113.185 97.0939 113.185 97.2702C113.185 97.4463 113.204 97.6257 113.24 97.7993C113.275 97.9729 113.327 98.1438 113.396 98.3063Z" fill="#856883"/>
<path d="M126.864 98.3063C126.933 98.4718 127.017 98.6292 127.116 98.7757C127.214 98.9249 127.329 99.0632 127.455 99.188C127.581 99.3131 127.72 99.427 127.871 99.5244C128.018 99.6221 128.177 99.7062 128.344 99.774C128.508 99.8419 128.68 99.8934 128.855 99.9287C129.03 99.9639 129.21 99.9829 129.388 99.9829C129.566 99.9829 129.746 99.9639 129.924 99.9287C130.096 99.8934 130.269 99.8419 130.435 99.774C130.6 99.7062 130.758 99.6221 130.906 99.5244C131.056 99.427 131.196 99.3131 131.321 99.188C131.447 99.0632 131.562 98.9249 131.663 98.7757C131.762 98.6292 131.846 98.4718 131.915 98.3063C131.983 98.1436 132.035 97.9729 132.071 97.7993C132.106 97.6254 132.123 97.4463 132.123 97.2702C132.123 97.0939 132.106 96.9146 132.071 96.7385C132.035 96.5676 131.983 96.3967 131.915 96.2312C131.846 96.0681 131.762 95.9111 131.663 95.7646C131.562 95.6151 131.447 95.4767 131.321 95.3519C131.196 95.2271 131.056 95.1132 130.906 95.0128C130.758 94.9151 130.6 94.831 130.435 94.7632C130.269 94.6954 130.096 94.6438 129.924 94.6086C129.571 94.538 129.208 94.538 128.855 94.6086C128.68 94.6438 128.508 94.6954 128.344 94.7632C128.177 94.831 128.018 94.9151 127.871 95.0128C127.72 95.1132 127.581 95.2271 127.455 95.3519C127.329 95.4767 127.214 95.6151 127.116 95.7646C127.017 95.9111 126.933 96.0681 126.864 96.2312C126.796 96.3967 126.744 96.5676 126.708 96.7385C126.673 96.9146 126.654 97.0939 126.654 97.2702C126.654 97.4463 126.673 97.6257 126.708 97.7993C126.744 97.9729 126.796 98.1438 126.864 98.3063Z" fill="#856883"/>
<path d="M140.333 98.3063C140.401 98.4718 140.486 98.6292 140.585 98.7757C140.683 98.9249 140.798 99.0632 140.924 99.188C141.05 99.3131 141.189 99.427 141.339 99.5244C141.487 99.6221 141.646 99.7062 141.812 99.774C141.976 99.8419 142.149 99.8934 142.324 99.9287C142.499 99.9639 142.679 99.9829 142.857 99.9829C143.035 99.9829 143.215 99.9639 143.393 99.9287C143.565 99.8934 143.737 99.8419 143.904 99.774C144.068 99.7062 144.227 99.6221 144.375 99.5244C144.525 99.427 144.664 99.3131 144.79 99.188C144.916 99.0632 145.031 98.9249 145.132 98.7757C145.23 98.6292 145.315 98.4718 145.383 98.3063C145.452 98.1436 145.504 97.9729 145.539 97.7993C145.575 97.6254 145.591 97.4463 145.591 97.2702C145.591 97.0939 145.575 96.9146 145.539 96.7385C145.504 96.5676 145.452 96.3967 145.383 96.2312C145.315 96.0681 145.23 95.9111 145.132 95.7646C145.031 95.6151 144.916 95.4767 144.79 95.3519C144.664 95.2271 144.525 95.1132 144.375 95.0128C144.227 94.9151 144.068 94.831 143.904 94.7632C143.737 94.6954 143.565 94.6438 143.393 94.6086C143.04 94.538 142.676 94.538 142.324 94.6086C142.149 94.6438 141.976 94.6954 141.812 94.7632C141.646 94.831 141.487 94.9151 141.339 95.0128C141.189 95.1132 141.05 95.2271 140.924 95.3519C140.798 95.4767 140.683 95.6151 140.585 95.7646C140.486 95.9111 140.401 96.0681 140.333 96.2312C140.265 96.3967 140.213 96.5676 140.177 96.7385C140.142 96.9146 140.123 97.0939 140.123 97.2702C140.123 97.4463 140.142 97.6257 140.177 97.7993C140.213 97.9729 140.265 98.1438 140.333 98.3063Z" fill="#856883"/>
<path d="M79.0085 68.8736C79.0755 68.9368 79.1446 68.9981 79.2185 69.0548C85.4974 73.8746 92.9207 76.6024 100.8 77.0094C100.856 77.0123 100.912 77.015 100.968 77.0178C101.218 77.0297 101.469 77.0389 101.719 77.0462C101.793 77.0484 101.867 77.0511 101.941 77.053C102.25 77.0601 102.56 77.0647 102.87 77.0647C103.183 77.0647 103.494 77.0601 103.805 77.053C103.876 77.0514 103.947 77.0487 104.018 77.0465C104.275 77.0392 104.531 77.0297 104.787 77.0175C104.836 77.015 104.885 77.0126 104.934 77.0099C112.942 76.5989 120.464 73.797 126.801 68.8407C126.888 68.7726 126.97 68.6991 127.047 68.6221C135.886 61.5817 141.555 50.7778 141.555 38.683C141.555 17.5189 124.201 0.300781 102.87 0.300781C81.5394 0.300781 64.1846 17.5189 64.1846 38.6827C64.1846 50.9216 69.988 61.8406 79.0085 68.8736ZM106.422 71.4497C106.253 71.4674 106.083 71.4837 105.913 71.4988C105.725 71.5159 105.537 71.533 105.348 71.5469C105.02 71.5705 104.691 71.5895 104.362 71.6036C104.249 71.6087 104.136 71.6125 104.023 71.6163C103.639 71.6291 103.256 71.6383 102.87 71.6383C102.489 71.6383 102.11 71.6293 101.732 71.6169C101.62 71.6131 101.509 71.609 101.398 71.6044C101.083 71.5908 100.77 71.5729 100.457 71.5509C100.275 71.5379 100.093 71.5222 99.9117 71.5062C99.7154 71.4891 99.5193 71.4706 99.3235 71.4503C99.1051 71.4272 98.8869 71.4034 98.6695 71.376C98.6309 71.3711 98.5926 71.3654 98.5541 71.3605C93.0419 70.6478 87.9502 68.5898 83.6255 65.5296V60.6178C83.6255 54.1537 86.8613 48.4292 91.8067 44.9428C94.8977 47.3394 98.7819 48.7732 103 48.7732C107.217 48.7732 111.102 47.3397 114.193 44.9428C119.138 48.4292 122.374 54.1537 122.374 60.6178V65.3416H122.374C117.797 68.6473 112.34 70.8228 106.422 71.4497ZM102.87 5.72664C121.186 5.72664 136.087 20.5105 136.087 38.6827C136.087 46.9903 132.971 54.5886 127.84 60.391C127.768 52.4696 123.911 45.4292 117.979 40.9673C120.017 38.0493 121.215 34.5124 121.215 30.7013C121.215 29.8047 121.148 28.9029 121.016 28.0209C120.794 26.5391 119.403 25.5166 117.909 25.7369C116.415 25.9575 115.384 27.3373 115.607 28.8193C115.699 29.4376 115.747 30.0708 115.747 30.7013C115.747 33.4964 114.826 36.0816 113.272 38.1773C112.012 39.8778 110.334 41.254 108.389 42.158C106.751 42.9195 104.925 43.3476 103 43.3476C101.075 43.3476 99.2497 42.9195 97.6118 42.158C95.6671 41.254 93.989 39.8778 92.7285 38.1773C91.1748 36.0816 90.2544 33.4967 90.2544 30.7013C90.2544 23.7283 95.9723 18.0553 103 18.0553C103.968 18.0553 104.931 18.1627 105.864 18.3751C107.338 18.7113 108.803 17.7975 109.141 16.3369C109.478 14.8765 108.558 13.4213 107.086 13.0865C105.753 12.7832 104.379 12.6294 103.001 12.6294C92.9571 12.6294 84.7859 20.7365 84.7859 30.7013C84.7859 34.5124 85.9841 38.0493 88.0221 40.9673C82.0335 45.4718 78.1578 52.6039 78.1578 60.6178V60.6781C72.8733 54.8404 69.6536 47.1281 69.6536 38.6827C69.6533 20.5105 84.5543 5.72664 102.87 5.72664Z" fill="#856883"/>
<path d="M111.821 21.2904C111.889 21.4531 111.974 21.6105 112.072 21.757C112.171 21.9062 112.286 22.0446 112.412 22.1694C112.537 22.2971 112.677 22.4084 112.827 22.5085C112.975 22.6061 113.133 22.6905 113.3 22.7583C113.464 22.8262 113.637 22.8774 113.812 22.9127C113.987 22.948 114.167 22.9642 114.345 22.9642C114.522 22.9642 114.703 22.9477 114.878 22.9127C115.053 22.8774 115.225 22.8262 115.392 22.7583C115.556 22.6905 115.715 22.6061 115.862 22.5085C116.013 22.4084 116.152 22.2971 116.278 22.1694C116.404 22.0446 116.519 21.9062 116.617 21.757C116.715 21.6105 116.8 21.4531 116.869 21.2904C116.937 21.1249 116.992 20.9567 117.024 20.783C117.06 20.6067 117.079 20.4304 117.079 20.2513C117.079 20.075 117.06 19.8956 117.024 19.7223C116.992 19.5487 116.937 19.3775 116.869 19.215C116.8 19.0525 116.715 18.8924 116.617 18.7459C116.519 18.5964 116.404 18.4581 116.278 18.3333C116.152 18.2085 116.013 18.0945 115.862 17.9969C115.715 17.8995 115.556 17.8151 115.392 17.7473C115.225 17.6794 115.053 17.6282 114.878 17.5929C114.525 17.5221 114.164 17.5221 113.812 17.5929C113.637 17.6282 113.464 17.6794 113.3 17.7473C113.133 17.8151 112.975 17.8995 112.827 17.9969C112.677 18.0945 112.537 18.2085 112.412 18.3333C112.286 18.4581 112.171 18.5964 112.072 18.7459C111.974 18.8924 111.889 19.0525 111.821 19.215C111.753 19.3775 111.701 19.5487 111.665 19.7223C111.629 19.8959 111.61 20.075 111.61 20.2513C111.61 20.4304 111.629 20.6067 111.665 20.783C111.701 20.9567 111.753 21.1249 111.821 21.2904Z" fill="#856883"/>
</g>
<path d="M46.4177 117.579L40.7608 123.235L40.8837 123.358L41.0119 123.476L46.4177 117.579ZM47.1377 123.789V131.789H55.1377V123.789H47.1377ZM17.3777 123.789H9.37766V131.789H17.3777V123.789ZM17.6777 119.769L10.2316 116.843L10.2029 116.916L10.1757 116.99L17.6777 119.769ZM18.6977 118.269L24.2274 124.05L24.295 123.985L24.3609 123.919L18.6977 118.269ZM31.8677 105.069L37.5309 110.719L37.5532 110.697L37.5752 110.674L31.8677 105.069ZM34.8077 101.859L28.7504 96.6327L28.7207 96.6671L28.6915 96.7018L34.8077 101.859ZM36.9977 98.8286L30.0774 94.8148L30.0774 94.8148L36.9977 98.8286ZM38.3177 95.7986L30.6714 93.4459L30.6568 93.4935L30.6427 93.5412L38.3177 95.7986ZM38.3477 89.7986L30.857 92.6076L30.8688 92.639L30.8809 92.6704L38.3477 89.7986ZM37.0577 87.7886L31.4008 93.4454L31.4522 93.4968L31.5046 93.5473L37.0577 87.7886ZM35.0777 86.5886L32.312 94.0953L32.4293 94.1385L32.5479 94.178L35.0777 86.5886ZM30.0377 86.5586L32.5057 94.1684L32.5666 94.1486L32.6272 94.1279L30.0377 86.5586ZM28.0577 87.6086L32.8928 93.9821L32.9614 93.9301L33.0288 93.8766L28.0577 87.6086ZM25.6877 91.1486L33.1916 93.9218L33.3068 93.61L33.3958 93.2897L25.6877 91.1486ZM22.0277 93.1886L20.6339 101.066L20.7108 101.08L20.7879 101.092L22.0277 93.1886ZM18.1277 92.4986L10.2096 91.3565L9.10339 99.0262L16.7339 100.376L18.1277 92.4986ZM19.8677 87.0386L26.8736 90.9008L26.884 90.882L26.8942 90.8632L19.8677 87.0386ZM23.0777 83.1086L28.1224 89.3175L28.1332 89.3087L23.0777 83.1086ZM27.5177 80.7386L29.9091 88.3728L29.9374 88.3639L29.9657 88.3548L27.5177 80.7386ZM38.4077 80.8286L35.6883 88.3522L35.7285 88.3667L35.7689 88.3809L38.4077 80.8286ZM45.4277 87.2186L52.7658 84.0323L52.7658 84.0323L45.4277 87.2186ZM45.6977 96.7286L38.1537 94.066L38.1362 94.1156L38.1194 94.1653L45.6977 96.7286ZM43.8077 100.629L37.0853 96.2916L37.0604 96.3301L37.036 96.369L43.8077 100.629ZM41.0477 104.229L46.9533 109.625L46.9533 109.625L41.0477 104.229ZM37.7177 107.769L43.4343 113.365L43.452 113.347L43.4696 113.329L37.7177 107.769ZM27.9377 117.759L22.221 112.162L0.597711 134.25L30.2215 125.426L27.9377 117.759ZM30.7277 117.129L31.9312 125.038L32.0007 125.027L32.07 125.015L30.7277 117.129ZM44.5277 124.889C44.1676 124.889 43.572 124.837 42.8566 124.576C42.1116 124.304 41.3808 123.855 40.7608 123.235L52.0745 111.922C49.784 109.631 46.9317 108.889 44.5277 108.889V124.889ZM41.0119 123.476C40.3985 122.914 39.8839 122.193 39.5473 121.365C39.2202 120.561 39.1377 119.847 39.1377 119.349H55.1377C55.1377 116.704 54.19 113.851 51.8235 111.681L41.0119 123.476ZM39.1377 119.349V123.789H55.1377V119.349H39.1377ZM47.1377 115.789H17.3777V131.789H47.1377V115.789ZM25.3777 123.789V121.329H9.37766V123.789H25.3777ZM25.3777 121.329C25.3777 121.909 25.2598 122.331 25.1796 122.547L10.1757 116.99C9.69552 118.286 9.37766 119.748 9.37766 121.329H25.3777ZM25.1237 122.694C24.8951 123.276 24.556 123.735 24.2274 124.05L13.1679 112.487C11.9193 113.682 10.9002 115.142 10.2316 116.843L25.1237 122.694ZM24.3609 123.919L37.5309 110.719L26.2044 99.4182L13.0344 112.618L24.3609 123.919ZM37.5752 110.674C38.7931 109.434 39.913 108.214 40.9238 107.015L28.6915 96.7018C27.9823 97.5429 27.1422 98.4629 26.1601 99.4629L37.5752 110.674ZM40.8649 107.084C42.0178 105.748 43.0517 104.336 43.9179 102.842L30.0774 94.8148C29.7837 95.3213 29.3575 95.929 28.7504 96.6327L40.8649 107.084ZM43.9179 102.842C44.7911 101.337 45.4972 99.7402 45.9926 98.0559L30.6427 93.5412C30.5381 93.8969 30.3643 94.3203 30.0774 94.8148L43.9179 102.842ZM45.9639 98.1513C46.5294 96.3134 46.7977 94.4278 46.7977 92.5286H30.7977C30.7977 92.9093 30.7459 93.2038 30.6714 93.4459L45.9639 98.1513ZM46.7977 92.5286C46.7977 90.738 46.5414 88.8168 45.8144 86.9267L30.8809 92.6704C30.8167 92.5035 30.7961 92.3943 30.7917 92.3672C30.7875 92.3418 30.7977 92.3903 30.7977 92.5286H46.7977ZM45.8383 86.9896C45.1617 85.1854 44.1096 83.4751 42.6107 82.0298L31.5046 93.5473C31.1258 93.182 30.9336 92.8118 30.857 92.6076L45.8383 86.9896ZM42.7145 82.1317C41.2301 80.6473 39.4735 79.6211 37.6075 78.9991L32.5479 94.178C32.2419 94.076 31.8053 93.8499 31.4008 93.4454L42.7145 82.1317ZM37.8433 79.0818C36.0505 78.4213 34.2307 78.1686 32.4977 78.1686V94.1686C32.6847 94.1686 32.5848 94.1958 32.312 94.0953L37.8433 79.0818ZM32.4977 78.1686C30.8205 78.1686 29.1175 78.4182 27.4482 78.9893L32.6272 94.1279C32.5576 94.1517 32.5044 94.1628 32.4753 94.1674C32.4471 94.1719 32.4523 94.1686 32.4977 94.1686V78.1686ZM27.5696 78.9488C25.9686 79.468 24.4517 80.2578 23.0865 81.3406L33.0288 93.8766C32.8236 94.0393 32.6267 94.1291 32.5057 94.1684L27.5696 78.9488ZM23.2226 81.2351C21.9387 82.209 20.831 83.3814 19.9313 84.731L33.2441 93.6062C33.1444 93.7557 33.0166 93.8881 32.8928 93.9821L23.2226 81.2351ZM19.9313 84.731C19.0444 86.0613 18.398 87.501 17.9795 89.0074L33.3958 93.2897C33.388 93.3177 33.3727 93.3645 33.3456 93.424C33.3184 93.4839 33.2842 93.546 33.2441 93.6062L19.9313 84.731ZM18.1837 88.3754C18.193 88.3503 18.3054 88.0444 18.6144 87.616C18.935 87.1715 19.5268 86.5163 20.4825 85.9853L28.2528 99.9718C31.2041 98.3322 32.5568 95.6396 33.1916 93.9218L18.1837 88.3754ZM20.4825 85.9853C21.4138 85.4679 22.227 85.3272 22.6626 85.2881C23.093 85.2495 23.3228 85.2939 23.2674 85.2852L20.7879 101.092C22.4895 101.359 25.4108 101.551 28.2528 99.9718L20.4825 85.9853ZM23.4214 85.3109L19.5214 84.6209L16.7339 100.376L20.6339 101.066L23.4214 85.3109ZM26.0457 93.6406C26.2323 92.347 26.5545 91.4796 26.8736 90.9008L12.8617 83.1763C11.4608 85.7175 10.623 88.4902 10.2096 91.3565L26.0457 93.6406ZM26.8942 90.8632C27.3009 90.1159 27.7229 89.642 28.1224 89.3175L18.0329 76.8997C15.8724 78.6551 14.1544 80.8012 12.8411 83.214L26.8942 90.8632ZM28.1332 89.3087C28.6152 88.9157 29.1836 88.6 29.9091 88.3728L25.1262 73.1044C22.5317 73.9171 20.1401 75.1815 18.0222 76.9084L28.1332 89.3087ZM29.9657 88.3548C30.7881 88.0905 31.7558 87.9286 32.9177 87.9286V71.9286C30.2395 71.9286 27.6072 72.3067 25.0696 73.1223L29.9657 88.3548ZM32.9177 87.9286C34.1125 87.9286 35.0081 88.1064 35.6883 88.3522L41.127 73.3049C38.4872 72.3508 35.7228 71.9286 32.9177 71.9286V87.9286ZM35.7689 88.3809C36.5079 88.6391 36.962 88.9414 37.2664 89.22L48.0689 77.4172C46.0133 75.5357 43.6274 74.1781 41.0464 73.2763L35.7689 88.3809ZM37.2664 89.22C37.5872 89.5136 37.8608 89.8779 38.0896 90.4049L52.7658 84.0323C51.6745 81.5192 50.1081 79.2836 48.0689 77.4172L37.2664 89.22ZM38.0896 90.4048C38.2625 90.803 38.4177 91.3905 38.4177 92.2886H54.4177C54.4177 89.4667 53.9129 86.6741 52.7658 84.0323L38.0896 90.4048ZM38.4177 92.2886C38.4177 93.0802 38.3007 93.6496 38.1537 94.066L53.2416 99.3911C54.0546 97.0876 54.4177 94.6969 54.4177 92.2886H38.4177ZM38.1194 94.1653C37.8764 94.8839 37.538 95.5898 37.0853 96.2916L50.53 104.966C51.6773 103.187 52.5989 101.293 53.2759 99.2918L38.1194 94.1653ZM37.036 96.369C36.5278 97.1769 35.9031 97.9991 35.142 98.832L46.9533 109.625C48.3122 108.138 49.5276 106.56 50.5793 104.888L37.036 96.369ZM35.142 98.832C34.1355 99.9335 33.0769 101.059 31.9658 102.208L43.4696 113.329C44.6784 112.078 45.8398 110.844 46.9533 109.625L35.142 98.832ZM32.001 102.172L22.221 112.162L33.6543 123.355L43.4343 113.365L32.001 102.172ZM30.2215 125.426C30.8263 125.245 31.3955 125.119 31.9312 125.038L29.5241 109.22C28.2199 109.418 26.929 109.712 25.6538 110.091L30.2215 125.426ZM32.07 125.015C32.6248 124.921 33.063 124.889 33.3977 124.889V108.889C32.0524 108.889 30.7105 109.016 29.3853 109.242L32.07 125.015ZM33.3977 124.889H44.5277V108.889H33.3977V124.889Z" fill="#F2F4F5"/>
<path d="M44.5277 116.889C45.3277 116.889 45.9577 117.119 46.4177 117.579C46.8977 118.019 47.1377 118.609 47.1377 119.349V123.789H17.3777V121.329C17.3777 120.829 17.4777 120.309 17.6777 119.769C17.8977 119.209 18.2377 118.709 18.6977 118.269L31.8677 105.069C32.9677 103.949 33.9477 102.879 34.8077 101.859C35.6877 100.839 36.4177 99.8286 36.9977 98.8286C37.5777 97.8286 38.0177 96.8186 38.3177 95.7986C38.6377 94.7586 38.7977 93.6686 38.7977 92.5286C38.7977 91.4886 38.6477 90.5786 38.3477 89.7986C38.0477 88.9986 37.6177 88.3286 37.0577 87.7886C36.5177 87.2486 35.8577 86.8486 35.0777 86.5886C34.3177 86.3086 33.4577 86.1686 32.4977 86.1686C31.6177 86.1686 30.7977 86.2986 30.0377 86.5586C29.2977 86.7986 28.6377 87.1486 28.0577 87.6086C27.4777 88.0486 26.9877 88.5686 26.5877 89.1686C26.1877 89.7686 25.8877 90.4286 25.6877 91.1486C25.3477 92.0686 24.9077 92.6786 24.3677 92.9786C23.8277 93.2786 23.0477 93.3486 22.0277 93.1886L18.1277 92.4986C18.4277 90.4186 19.0077 88.5986 19.8677 87.0386C20.7277 85.4586 21.7977 84.1486 23.0777 83.1086C24.3777 82.0486 25.8577 81.2586 27.5177 80.7386C29.1977 80.1986 30.9977 79.9286 32.9177 79.9286C34.9177 79.9286 36.7477 80.2286 38.4077 80.8286C40.0677 81.4086 41.4877 82.2386 42.6677 83.3186C43.8477 84.3986 44.7677 85.6986 45.4277 87.2186C46.0877 88.7386 46.4177 90.4286 46.4177 92.2886C46.4177 93.8886 46.1777 95.3686 45.6977 96.7286C45.2377 98.0886 44.6077 99.3886 43.8077 100.629C43.0277 101.869 42.1077 103.069 41.0477 104.229C39.9877 105.389 38.8777 106.569 37.7177 107.769L27.9377 117.759C28.8777 117.479 29.8077 117.269 30.7277 117.129C31.6677 116.969 32.5577 116.889 33.3977 116.889H44.5277Z" fill="#E0004D"/>
<defs>
<clipPath id="clip0">
<rect width="140" height="138.902" fill="white" transform="translate(33 0.300781)"/>
</clipPath>
</defs>
</svg>