<svg width="140" height="140" viewBox="0 0 140 140" fill="none" xmlns="http://www.w3.org/2000/svg">
<g clip-path="url(#clip0)">
<path d="M98.4375 0H41.5625C35.5244 0.00747682 30.6325 4.89944 30.625 10.9375V129.062C30.6325 135.101 35.5244 139.993 41.5625 140H98.4375C104.476 139.993 109.368 135.101 109.375 129.062V10.9375C109.368 4.89944 104.476 0.00747682 98.4375 0ZM35 19.6875H105V109.375H35V19.6875ZM41.5625 4.375H98.4375C102.062 4.375 105 7.31339 105 10.9375V15.3125H35V10.9375C35 7.31339 37.9384 4.375 41.5625 4.375ZM98.4375 135.625H41.5625C37.9384 135.625 35 132.687 35 129.062V113.75H105V129.062C105 132.687 102.062 135.625 98.4375 135.625Z" fill="#856883" stroke="#856883"/>
<path d="M70.5 117C65.8059 117 62 120.582 62 125C62 129.418 65.8059 133 70.5 133C75.1941 133 79 129.418 79 125C79 120.582 75.1941 117 70.5 117ZM70.5 129C68.153 129 66.25 127.209 66.25 125C66.25 122.791 68.153 121 70.5 121C72.847 121 74.75 122.791 74.75 125C74.75 127.209 72.847 129 70.5 129Z" fill="#856883" stroke="#856883"/>
<path d="M90.9276 55.6189C88.8618 47.4169 81.5207 41.6426 73.0623 41.5679C64.6039 41.4931 57.1613 47.136 54.9503 55.2996C50.5304 54.4205 45.9952 56.1274 43.2501 59.7013C40.5061 63.2752 40.0287 68.0977 42.0186 72.1405C44.0096 76.1833 48.1229 78.7458 52.6292 78.75H61.25C62.458 78.75 63.4375 77.7706 63.4375 76.5625C63.4375 75.3545 62.458 74.375 61.25 74.375H52.6292C49.9323 74.421 47.4211 73.0089 46.0593 70.6815C44.6974 68.353 44.6974 65.4712 46.0593 63.1438C47.4211 60.8153 49.9323 59.4033 52.6292 59.4492C53.6909 59.4428 54.742 59.666 55.7086 60.1061C56.3441 60.3987 57.0801 60.3699 57.691 60.0292C58.3009 59.6884 58.7111 59.0764 58.7955 58.3821C59.6852 51.3977 65.5524 46.117 72.5912 45.9642C79.6312 45.8115 85.7216 50.8327 86.9136 57.7722C87.0685 58.6844 87.7809 59.4011 88.692 59.5613C92.2104 60.2043 94.7781 63.2538 94.8134 66.8299C94.8486 70.4059 92.3418 73.5056 88.8362 74.218C88.3545 74.3174 87.8632 74.3654 87.3708 74.3601H78.75C77.542 74.3601 76.5625 75.3395 76.5625 76.5476C76.5625 77.7556 77.542 78.7351 78.75 78.7351H87.3708C88.1644 78.7404 88.9558 78.6614 89.7334 78.5012C95.0227 77.4234 98.9139 72.9053 99.1948 67.5145C99.4757 62.1248 96.0759 57.2254 90.9276 55.604V55.6189Z" fill="#856883" stroke="#856883"/>
<path d="M79.5703 85.7921L72.1875 91.6977V67.8125C72.1875 66.6045 71.208 65.625 70 65.625C68.792 65.625 67.8125 66.6045 67.8125 67.8125V91.6977L60.4297 85.7921C59.4865 85.0369 58.1087 85.1897 57.3546 86.1328C56.5994 87.076 56.7522 88.4538 57.6953 89.2079L68.6328 97.9579C68.7289 98.022 68.8294 98.0775 68.9351 98.1245C69.0056 98.1705 69.0782 98.2132 69.153 98.2516C69.42 98.3702 69.7084 98.4332 70 98.4375C70.2927 98.4311 70.5811 98.3649 70.8492 98.2452C70.8791 98.2314 70.9164 98.2452 70.9474 98.2207C71.0425 98.1673 71.1333 98.1064 71.2187 98.0391C71.27 98.0156 71.3191 97.9889 71.3672 97.9579L82.3047 89.2079C83.2478 88.4538 83.4006 87.076 82.6454 86.1328C81.8913 85.1897 80.5135 85.0369 79.5703 85.7921Z" fill="#856883" stroke="#856883"/>
<path d="M43.75 127.062H41.5625C40.3545 127.062 39.375 128.042 39.375 129.25C39.375 130.458 40.3545 131.438 41.5625 131.438H43.75C44.958 131.438 45.9375 130.458 45.9375 129.25C45.9375 128.042 44.958 127.062 43.75 127.062Z" fill="#856883" stroke="#856883"/>
<path d="M98.625 119.312C97.417 119.312 96.4375 120.292 96.4375 121.5V128.062H89.875C88.667 128.062 87.6875 129.042 87.6875 130.25C87.6875 131.458 88.667 132.438 89.875 132.438H96.4375C98.8536 132.438 100.812 130.479 100.812 128.062V121.5C100.812 120.292 99.833 119.312 98.625 119.312Z" fill="#856883" stroke="#856883"/>
<path d="M31.1577 94.14C33.1577 94.14 34.9877 94.44 36.6477 95.04C38.3077 95.62 39.7277 96.45 40.9077 97.53C42.0877 98.61 43.0077 99.91 43.6677 101.43C44.3277 102.95 44.6577 104.64 44.6577 106.5C44.6577 108.1 44.4177 109.58 43.9377 110.94C43.4777 112.3 42.8477 113.6 42.0477 114.84C41.2677 116.08 40.3477 117.28 39.2877 118.44C38.2277 119.6 37.1177 120.78 35.9577 121.98L26.1777 131.97C27.1377 131.69 28.0777 131.48 28.9977 131.34C29.9177 131.18 30.7977 131.1 31.6377 131.1H42.7677C43.5677 131.1 44.1977 131.33 44.6577 131.79C45.1377 132.23 45.3777 132.82 45.3777 133.56V138H15.6177V135.54C15.6177 135.04 15.7177 134.52 15.9177 133.98C16.1377 133.44 16.4777 132.94 16.9377 132.48L30.1077 119.28C31.2077 118.16 32.1877 117.09 33.0477 116.07C33.9277 115.05 34.6577 114.04 35.2377 113.04C35.8377 112.04 36.2877 111.03 36.5877 110.01C36.9077 108.97 37.0677 107.88 37.0677 106.74C37.0677 105.7 36.9177 104.79 36.6177 104.01C36.3177 103.21 35.8877 102.54 35.3277 102C34.7677 101.46 34.0977 101.06 33.3177 100.8C32.5577 100.52 31.6977 100.38 30.7377 100.38C28.9577 100.38 27.4877 100.83 26.3277 101.73C25.1877 102.63 24.3877 103.84 23.9277 105.36C23.7077 106.12 23.3777 106.67 22.9377 107.01C22.4977 107.33 21.9377 107.49 21.2577 107.49C20.9577 107.49 20.6277 107.46 20.2677 107.4L16.3677 106.71C16.6677 104.63 17.2477 102.81 18.1077 101.25C18.9677 99.67 20.0377 98.36 21.3177 97.32C22.6177 96.26 24.0977 95.47 25.7577 94.95C27.4377 94.41 29.2377 94.14 31.1577 94.14Z" fill="#E0004D"/>
<path d="M36.6477 95.04L33.9283 102.564L33.9685 102.578L34.0089 102.592L36.6477 95.04ZM43.6677 101.43L51.0058 98.2437V98.2437L43.6677 101.43ZM43.9377 110.94L36.3937 108.277L36.3762 108.327L36.3594 108.377L43.9377 110.94ZM42.0477 114.84L35.3253 110.503L35.3004 110.542L35.276 110.58L42.0477 114.84ZM39.2877 118.44L33.382 113.043L39.2877 118.44ZM35.9577 121.98L41.6743 127.576L41.692 127.558L41.7096 127.54L35.9577 121.98ZM26.1777 131.97L20.461 126.374L-0.910578 148.204L28.4177 139.65L26.1777 131.97ZM28.9977 131.34L30.2012 139.249L30.2849 139.236L30.3684 139.222L28.9977 131.34ZM44.6577 131.79L39.0008 137.447L39.1237 137.57L39.2519 137.687L44.6577 131.79ZM45.3777 138V146H53.3777V138H45.3777ZM15.6177 138H7.61766V146H15.6177V138ZM15.9177 133.98L8.50892 130.962L8.46036 131.081L8.41567 131.201L15.9177 133.98ZM16.9377 132.48L22.5945 138.137L22.6009 138.13L16.9377 132.48ZM30.1077 119.28L35.7709 124.93L35.7932 124.908L35.8152 124.886L30.1077 119.28ZM33.0477 116.07L26.9904 110.844L26.9607 110.879L26.9315 110.913L33.0477 116.07ZM35.2377 113.04L28.3777 108.924L28.3472 108.975L28.3174 109.026L35.2377 113.04ZM36.5877 110.01L28.9414 107.657L28.9268 107.705L28.9127 107.753L36.5877 110.01ZM36.6177 104.01L29.127 106.819L29.1388 106.85L29.1509 106.882L36.6177 104.01ZM35.3277 102L29.7746 107.759L29.7746 107.759L35.3277 102ZM33.3177 100.8L30.552 108.307L30.6693 108.35L30.7879 108.389L33.3177 100.8ZM26.3277 101.73L21.4237 95.4093L21.397 95.43L21.3705 95.4509L26.3277 101.73ZM23.9277 105.36L16.2706 103.043L16.2566 103.089L16.2431 103.136L23.9277 105.36ZM22.9377 107.01L27.643 113.48L27.7371 113.411L27.8292 113.34L22.9377 107.01ZM20.2677 107.4L18.8739 115.278L18.9132 115.285L18.9525 115.291L20.2677 107.4ZM16.3677 106.71L8.44959 105.568L7.34339 113.238L14.9739 114.588L16.3677 106.71ZM18.1077 101.25L25.1136 105.112L25.124 105.093L25.1342 105.075L18.1077 101.25ZM21.3177 97.32L26.3624 103.529L26.3732 103.52L21.3177 97.32ZM25.7577 94.95L28.1491 102.584L28.1774 102.575L28.2057 102.566L25.7577 94.95ZM31.1577 102.14C32.3525 102.14 33.2481 102.318 33.9283 102.564L39.367 87.5164C36.7272 86.5622 33.9628 86.14 31.1577 86.14V102.14ZM34.0089 102.592C34.7479 102.85 35.202 103.153 35.5064 103.431L46.3089 91.6286C44.2533 89.7472 41.8674 88.3895 39.2864 87.4877L34.0089 102.592ZM35.5064 103.431C35.8272 103.725 36.1008 104.089 36.3296 104.616L51.0058 98.2437C49.9145 95.7306 48.3481 93.495 46.3089 91.6286L35.5064 103.431ZM36.3296 104.616C36.5025 105.014 36.6577 105.602 36.6577 106.5H52.6577C52.6577 103.678 52.1529 100.886 51.0058 98.2437L36.3296 104.616ZM36.6577 106.5C36.6577 107.292 36.5407 107.861 36.3937 108.277L51.4816 113.603C52.2946 111.299 52.6577 108.908 52.6577 106.5H36.6577ZM36.3594 108.377C36.1164 109.095 35.778 109.801 35.3253 110.503L48.77 119.177C49.9173 117.399 50.8389 115.505 51.5159 113.503L36.3594 108.377ZM35.276 110.58C34.7678 111.388 34.1431 112.211 33.382 113.043L45.1933 123.837C46.5522 122.349 47.7676 120.772 48.8193 119.1L35.276 110.58ZM33.382 113.043C32.3755 114.145 31.3169 115.27 30.2058 116.42L41.7096 127.54C42.9184 126.29 44.0798 125.055 45.1933 123.837L33.382 113.043ZM30.241 116.384L20.461 126.374L31.8943 137.566L41.6743 127.576L30.241 116.384ZM28.4177 139.65C29.0626 139.462 29.6562 139.332 30.2012 139.249L27.7941 123.431C26.4991 123.628 25.2127 123.918 23.9377 124.29L28.4177 139.65ZM30.3684 139.222C30.8851 139.132 31.3047 139.1 31.6377 139.1V123.1C30.2906 123.1 28.9502 123.228 27.6269 123.458L30.3684 139.222ZM31.6377 139.1H42.7677V123.1H31.6377V139.1ZM42.7677 139.1C42.4076 139.1 41.812 139.049 41.0966 138.787C40.3516 138.515 39.6208 138.067 39.0008 137.447L50.3145 126.133C48.024 123.843 45.1717 123.1 42.7677 123.1V139.1ZM39.2519 137.687C38.6385 137.125 38.1239 136.404 37.7873 135.577C37.4602 134.773 37.3777 134.058 37.3777 133.56H53.3777C53.3777 130.915 52.43 128.062 50.0634 125.893L39.2519 137.687ZM37.3777 133.56V138H53.3777V133.56H37.3777ZM45.3777 130H15.6177V146H45.3777V130ZM23.6177 138V135.54H7.61766V138H23.6177ZM23.6177 135.54C23.6177 136.12 23.4998 136.542 23.4196 136.759L8.41567 131.201C7.93552 132.498 7.61766 133.96 7.61766 135.54H23.6177ZM23.3264 136.998C23.1 137.554 22.8012 137.93 22.5945 138.137L11.2808 126.823C10.1541 127.95 9.1753 129.326 8.50892 130.962L23.3264 136.998ZM22.6009 138.13L35.7709 124.93L24.4444 113.63L11.2744 126.83L22.6009 138.13ZM35.8152 124.886C37.0331 123.646 38.153 122.426 39.1638 121.227L26.9315 110.913C26.2223 111.754 25.3822 112.674 24.4001 113.674L35.8152 124.886ZM39.1049 121.296C40.2578 119.96 41.2917 118.547 42.1579 117.054L28.3174 109.026C28.0237 109.533 27.5975 110.14 26.9904 110.844L39.1049 121.296ZM42.0976 117.156C43.0136 115.629 43.7534 113.998 44.2626 112.267L28.9127 107.753C28.8219 108.062 28.6617 108.451 28.3777 108.924L42.0976 117.156ZM44.2339 112.363C44.7994 110.525 45.0677 108.639 45.0677 106.74H29.0677C29.0677 107.121 29.0159 107.415 28.9414 107.657L44.2339 112.363ZM45.0677 106.74C45.0677 104.949 44.8114 103.028 44.0844 101.138L29.1509 106.882C29.0867 106.715 29.0661 106.606 29.0617 106.579C29.0575 106.553 29.0677 106.602 29.0677 106.74H45.0677ZM44.1083 101.201C43.4317 99.3968 42.3796 97.6865 40.8807 96.2412L29.7746 107.759C29.3958 107.393 29.2036 107.023 29.127 106.819L44.1083 101.201ZM40.8808 96.2413C39.4135 94.8264 37.6932 93.8258 35.8475 93.2105L30.7879 108.389C30.5021 108.294 30.1219 108.094 29.7746 107.759L40.8808 96.2413ZM36.0833 93.2933C34.2905 92.6328 32.4707 92.38 30.7377 92.38V108.38C30.9247 108.38 30.8248 108.407 30.552 108.307L36.0833 93.2933ZM30.7377 92.38C27.5701 92.38 24.2653 93.2046 21.4237 95.4093L31.2316 108.051C31.0094 108.223 30.7902 108.322 30.6419 108.367C30.5093 108.408 30.5189 108.38 30.7377 108.38V92.38ZM21.3705 95.4509C18.8265 97.4594 17.158 100.11 16.2706 103.043L31.5847 107.677C31.6112 107.59 31.6121 107.625 31.546 107.725C31.4762 107.83 31.3816 107.933 31.2848 108.009L21.3705 95.4509ZM16.2431 103.136C16.3021 102.932 16.6821 101.734 18.0461 100.68L27.8292 113.34C30.0732 111.606 31.1132 109.308 31.6122 107.584L16.2431 103.136ZM18.2323 100.54C19.4689 99.6408 20.6742 99.49 21.2577 99.49V115.49C23.2011 115.49 25.5264 115.019 27.643 113.48L18.2323 100.54ZM21.2577 99.49C21.4806 99.49 21.5977 99.5113 21.5829 99.5088L18.9525 115.291C19.6576 115.409 20.4347 115.49 21.2577 115.49V99.49ZM21.6614 99.5223L17.7614 98.8323L14.9739 114.588L18.8739 115.278L21.6614 99.5223ZM24.2857 107.852C24.4723 106.558 24.7945 105.691 25.1136 105.112L11.1017 97.3878C9.70082 99.9289 8.86301 102.702 8.44959 105.568L24.2857 107.852ZM25.1342 105.075C25.5409 104.327 25.9629 103.853 26.3624 103.529L16.2729 91.1111C14.1124 92.8665 12.3944 95.0126 11.0811 97.4254L25.1342 105.075ZM26.3732 103.52C26.8552 103.127 27.4236 102.811 28.1491 102.584L23.3662 87.3158C20.7717 88.1285 18.3801 89.3929 16.2622 91.1198L26.3732 103.52ZM28.2057 102.566C29.0281 102.302 29.9958 102.14 31.1577 102.14V86.14C28.4795 86.14 25.8472 86.5181 23.3096 87.3338L28.2057 102.566Z" fill="#F2F4F5"/>
<path d="M36.6477 95.04L33.9283 102.564L33.9685 102.578L34.0089 102.592L36.6477 95.04ZM43.6677 101.43L51.0058 98.2437V98.2437L43.6677 101.43ZM43.9377 110.94L36.3937 108.277L36.3762 108.327L36.3594 108.377L43.9377 110.94ZM42.0477 114.84L35.3253 110.503L35.3004 110.542L35.276 110.58L42.0477 114.84ZM39.2877 118.44L33.382 113.043L39.2877 118.44ZM35.9577 121.98L41.6743 127.576L41.692 127.558L41.7096 127.54L35.9577 121.98ZM26.1777 131.97L20.461 126.374L-0.910578 148.204L28.4177 139.65L26.1777 131.97ZM28.9977 131.34L30.2012 139.249L30.2849 139.236L30.3684 139.222L28.9977 131.34ZM44.6577 131.79L39.0008 137.447L39.1237 137.57L39.2519 137.687L44.6577 131.79ZM45.3777 138V146H53.3777V138H45.3777ZM15.6177 138H7.61766V146H15.6177V138ZM15.9177 133.98L8.50892 130.962L8.46036 131.081L8.41567 131.201L15.9177 133.98ZM16.9377 132.48L22.5945 138.137L22.6009 138.13L16.9377 132.48ZM30.1077 119.28L35.7709 124.93L35.7932 124.908L35.8152 124.886L30.1077 119.28ZM33.0477 116.07L26.9904 110.844L26.9607 110.879L26.9315 110.913L33.0477 116.07ZM35.2377 113.04L28.3777 108.924L28.3472 108.975L28.3174 109.026L35.2377 113.04ZM36.5877 110.01L28.9414 107.657L28.9268 107.705L28.9127 107.753L36.5877 110.01ZM36.6177 104.01L29.127 106.819L29.1388 106.85L29.1509 106.882L36.6177 104.01ZM35.3277 102L29.7746 107.759L29.7746 107.759L35.3277 102ZM33.3177 100.8L30.552 108.307L30.6693 108.35L30.7879 108.389L33.3177 100.8ZM26.3277 101.73L21.4237 95.4093L21.397 95.43L21.3705 95.4509L26.3277 101.73ZM23.9277 105.36L16.2706 103.043L16.2566 103.089L16.2431 103.136L23.9277 105.36ZM22.9377 107.01L27.643 113.48L27.7371 113.411L27.8292 113.34L22.9377 107.01ZM20.2677 107.4L18.8739 115.278L18.9132 115.285L18.9525 115.291L20.2677 107.4ZM16.3677 106.71L8.44959 105.568L7.34339 113.238L14.9739 114.588L16.3677 106.71ZM18.1077 101.25L25.1136 105.112L25.124 105.093L25.1342 105.075L18.1077 101.25ZM21.3177 97.32L26.3624 103.529L26.3732 103.52L21.3177 97.32ZM25.7577 94.95L28.1491 102.584L28.1774 102.575L28.2057 102.566L25.7577 94.95ZM31.1577 102.14C32.3525 102.14 33.2481 102.318 33.9283 102.564L39.367 87.5164C36.7272 86.5622 33.9628 86.14 31.1577 86.14V102.14ZM34.0089 102.592C34.7479 102.85 35.202 103.153 35.5064 103.431L46.3089 91.6286C44.2533 89.7472 41.8674 88.3895 39.2864 87.4877L34.0089 102.592ZM35.5064 103.431C35.8272 103.725 36.1008 104.089 36.3296 104.616L51.0058 98.2437C49.9145 95.7306 48.3481 93.495 46.3089 91.6286L35.5064 103.431ZM36.3296 104.616C36.5025 105.014 36.6577 105.602 36.6577 106.5H52.6577C52.6577 103.678 52.1529 100.886 51.0058 98.2437L36.3296 104.616ZM36.6577 106.5C36.6577 107.292 36.5407 107.861 36.3937 108.277L51.4816 113.603C52.2946 111.299 52.6577 108.908 52.6577 106.5H36.6577ZM36.3594 108.377C36.1164 109.095 35.778 109.801 35.3253 110.503L48.77 119.177C49.9173 117.399 50.8389 115.505 51.5159 113.503L36.3594 108.377ZM35.276 110.58C34.7678 111.388 34.1431 112.211 33.382 113.043L45.1933 123.837C46.5522 122.349 47.7676 120.772 48.8193 119.1L35.276 110.58ZM33.382 113.043C32.3755 114.145 31.3169 115.27 30.2058 116.42L41.7096 127.54C42.9184 126.29 44.0798 125.055 45.1933 123.837L33.382 113.043ZM30.241 116.384L20.461 126.374L31.8943 137.566L41.6743 127.576L30.241 116.384ZM28.4177 139.65C29.0626 139.462 29.6562 139.332 30.2012 139.249L27.7941 123.431C26.4991 123.628 25.2127 123.918 23.9377 124.29L28.4177 139.65ZM30.3684 139.222C30.8851 139.132 31.3047 139.1 31.6377 139.1V123.1C30.2906 123.1 28.9502 123.228 27.6269 123.458L30.3684 139.222ZM31.6377 139.1H42.7677V123.1H31.6377V139.1ZM42.7677 139.1C42.4076 139.1 41.812 139.049 41.0966 138.787C40.3516 138.515 39.6208 138.067 39.0008 137.447L50.3145 126.133C48.024 123.843 45.1717 123.1 42.7677 123.1V139.1ZM39.2519 137.687C38.6385 137.125 38.1239 136.404 37.7873 135.577C37.4602 134.773 37.3777 134.058 37.3777 133.56H53.3777C53.3777 130.915 52.43 128.062 50.0634 125.893L39.2519 137.687ZM37.3777 133.56V138H53.3777V133.56H37.3777ZM45.3777 130H15.6177V146H45.3777V130ZM23.6177 138V135.54H7.61766V138H23.6177ZM23.6177 135.54C23.6177 136.12 23.4998 136.542 23.4196 136.759L8.41567 131.201C7.93552 132.498 7.61766 133.96 7.61766 135.54H23.6177ZM23.3264 136.998C23.1 137.554 22.8012 137.93 22.5945 138.137L11.2808 126.823C10.1541 127.95 9.1753 129.326 8.50892 130.962L23.3264 136.998ZM22.6009 138.13L35.7709 124.93L24.4444 113.63L11.2744 126.83L22.6009 138.13ZM35.8152 124.886C37.0331 123.646 38.153 122.426 39.1638 121.227L26.9315 110.913C26.2223 111.754 25.3822 112.674 24.4001 113.674L35.8152 124.886ZM39.1049 121.296C40.2578 119.96 41.2917 118.547 42.1579 117.054L28.3174 109.026C28.0237 109.533 27.5975 110.14 26.9904 110.844L39.1049 121.296ZM42.0976 117.156C43.0136 115.629 43.7534 113.998 44.2626 112.267L28.9127 107.753C28.8219 108.062 28.6617 108.451 28.3777 108.924L42.0976 117.156ZM44.2339 112.363C44.7994 110.525 45.0677 108.639 45.0677 106.74H29.0677C29.0677 107.121 29.0159 107.415 28.9414 107.657L44.2339 112.363ZM45.0677 106.74C45.0677 104.949 44.8114 103.028 44.0844 101.138L29.1509 106.882C29.0867 106.715 29.0661 106.606 29.0617 106.579C29.0575 106.553 29.0677 106.602 29.0677 106.74H45.0677ZM44.1083 101.201C43.4317 99.3968 42.3796 97.6865 40.8807 96.2412L29.7746 107.759C29.3958 107.393 29.2036 107.023 29.127 106.819L44.1083 101.201ZM40.8808 96.2413C39.4135 94.8264 37.6932 93.8258 35.8475 93.2105L30.7879 108.389C30.5021 108.294 30.1219 108.094 29.7746 107.759L40.8808 96.2413ZM36.0833 93.2933C34.2905 92.6328 32.4707 92.38 30.7377 92.38V108.38C30.9247 108.38 30.8248 108.407 30.552 108.307L36.0833 93.2933ZM30.7377 92.38C27.5701 92.38 24.2653 93.2046 21.4237 95.4093L31.2316 108.051C31.0094 108.223 30.7902 108.322 30.6419 108.367C30.5093 108.408 30.5189 108.38 30.7377 108.38V92.38ZM21.3705 95.4509C18.8265 97.4594 17.158 100.11 16.2706 103.043L31.5847 107.677C31.6112 107.59 31.6121 107.625 31.546 107.725C31.4762 107.83 31.3816 107.933 31.2848 108.009L21.3705 95.4509ZM16.2431 103.136C16.3021 102.932 16.6821 101.734 18.0461 100.68L27.8292 113.34C30.0732 111.606 31.1132 109.308 31.6122 107.584L16.2431 103.136ZM18.2323 100.54C19.4689 99.6408 20.6742 99.49 21.2577 99.49V115.49C23.2011 115.49 25.5264 115.019 27.643 113.48L18.2323 100.54ZM21.2577 99.49C21.4806 99.49 21.5977 99.5113 21.5829 99.5088L18.9525 115.291C19.6576 115.409 20.4347 115.49 21.2577 115.49V99.49ZM21.6614 99.5223L17.7614 98.8323L14.9739 114.588L18.8739 115.278L21.6614 99.5223ZM24.2857 107.852C24.4723 106.558 24.7945 105.691 25.1136 105.112L11.1017 97.3878C9.70082 99.9289 8.86301 102.702 8.44959 105.568L24.2857 107.852ZM25.1342 105.075C25.5409 104.327 25.9629 103.853 26.3624 103.529L16.2729 91.1111C14.1124 92.8665 12.3944 95.0126 11.0811 97.4254L25.1342 105.075ZM26.3732 103.52C26.8552 103.127 27.4236 102.811 28.1491 102.584L23.3662 87.3158C20.7717 88.1285 18.3801 89.3929 16.2622 91.1198L26.3732 103.52ZM28.2057 102.566C29.0281 102.302 29.9958 102.14 31.1577 102.14V86.14C28.4795 86.14 25.8472 86.5181 23.3096 87.3338L28.2057 102.566Z" fill="#F2F4F5"/>
<path d="M31.1577 94.14C33.1577 94.14 34.9877 94.44 36.6477 95.04C38.3077 95.62 39.7277 96.45 40.9077 97.53C42.0877 98.61 43.0077 99.91 43.6677 101.43C44.3277 102.95 44.6577 104.64 44.6577 106.5C44.6577 108.1 44.4177 109.58 43.9377 110.94C43.4777 112.3 42.8477 113.6 42.0477 114.84C41.2677 116.08 40.3477 117.28 39.2877 118.44C38.2277 119.6 37.1177 120.78 35.9577 121.98L26.1777 131.97C27.1377 131.69 28.0777 131.48 28.9977 131.34C29.9177 131.18 30.7977 131.1 31.6377 131.1H42.7677C43.5677 131.1 44.1977 131.33 44.6577 131.79C45.1377 132.23 45.3777 132.82 45.3777 133.56V138H15.6177V135.54C15.6177 135.04 15.7177 134.52 15.9177 133.98C16.1377 133.44 16.4777 132.94 16.9377 132.48L30.1077 119.28C31.2077 118.16 32.1877 117.09 33.0477 116.07C33.9277 115.05 34.6577 114.04 35.2377 113.04C35.8377 112.04 36.2877 111.03 36.5877 110.01C36.9077 108.97 37.0677 107.88 37.0677 106.74C37.0677 105.7 36.9177 104.79 36.6177 104.01C36.3177 103.21 35.8877 102.54 35.3277 102C34.7677 101.46 34.0977 101.06 33.3177 100.8C32.5577 100.52 31.6977 100.38 30.7377 100.38C28.9577 100.38 27.4877 100.83 26.3277 101.73C25.1877 102.63 24.3877 103.84 23.9277 105.36C23.7077 106.12 23.3777 106.67 22.9377 107.01C22.4977 107.33 21.9377 107.49 21.2577 107.49C20.9577 107.49 20.6277 107.46 20.2677 107.4L16.3677 106.71C16.6677 104.63 17.2477 102.81 18.1077 101.25C18.9677 99.67 20.0377 98.36 21.3177 97.32C22.6177 96.26 24.0977 95.47 25.7577 94.95C27.4377 94.41 29.2377 94.14 31.1577 94.14Z" fill="#E0004D"/>
</g>
<defs>
<clipPath id="clip0">
<rect width="140" height="140" fill="white"/>
</clipPath>
</defs>
</svg>
