<svg width="1440" height="1077" viewBox="0 0 1440 1077" fill="none" xmlns="http://www.w3.org/2000/svg" xmlns:xlink="http://www.w3.org/1999/xlink">
<mask id="mask0" mask-type="alpha" maskUnits="userSpaceOnUse" x="0" y="0" width="1440" height="1319">
<rect width="1440" height="1077" fill="#C4C4C4"/>
</mask>
<g mask="url(#mask0)">
<path d="M-1100.89 857.773C-1960.73 518.724 -2636.26 -173.856 -2954.96 -1045.39C-2967.77 -1084.08 -2985.43 -1124.7 -2996.32 -1168.25C-3089.95 -1457.52 -2927.72 -1769.29 -2638.31 -1862.67C-2348.89 -1956.04 -2036.81 -1793.73 -1943.19 -1504.45C-1936.27 -1479.29 -1924.5 -1452.22 -1912.72 -1425.14C-1707.07 -850.549 -1258.68 -393.341 -690.312 -169.224C-121.942 54.8926 512.969 24.8484 1060.29 -252.836C1333.95 -391.678 1662.23 -284.667 1801.34 -11.1024C1940.45 262.462 1833.57 590.446 1559.91 729.288C727.294 1146.84 -241.044 1196.82 -1100.89 857.773Z" fill="#E0004D"/>
<mask id="mask1" mask-type="alpha" maskUnits="userSpaceOnUse" x="764" y="0" width="680" height="1077">
<rect width="679" height="1077" transform="translate(765)" fill="white"/>
</mask>
</g>
</svg>
