<svg width="129" height="124" viewBox="0 0 129 124" fill="none" xmlns="http://www.w3.org/2000/svg">
<path d="M124.17 39.0118L123.461 38.2209V38.4604L119.045 34.9236V19.2809C119.045 16.7835 117.02 14.7588 114.523 14.7588H93.9024L77.3344 1.47725C76.5242 0.825617 75.3699 0.825617 74.5596 1.47725L57.9917 14.7588H37.371C34.8736 14.7588 32.8489 16.7835 32.8489 19.2809V34.9008L27.7573 38.9785L27.7271 39.0026L27.7011 39.0311C27.6305 39.1082 27.5657 39.1903 27.5069 39.2774C24.8569 42.5352 23.4387 46.6224 23.502 50.8219V86.5146C23.502 90.4591 24.5747 94.5827 27.1942 97.7297C29.8266 100.892 33.9747 103.012 39.9991 103.012H111.986C115.931 103.012 120.054 101.939 123.201 99.3196C126.364 96.6871 128.483 92.5391 128.483 86.5146V50.8295C128.675 46.5765 127.199 42.4172 124.371 39.2369C124.327 39.1581 124.261 39.0772 124.17 39.0118ZM27.9071 86.4701V86.4689L27.9071 50.7953L27.9071 50.7915C27.8886 48.3403 28.5048 45.9295 29.692 43.7921L62.9592 67.0126L29.1329 92.3712C28.3208 90.5123 27.9023 88.5028 27.9071 86.4701ZM111.996 98.5611L111.996 98.561H111.986L39.9536 98.5381L39.9382 98.5381L39.9228 98.539C36.9727 98.7202 34.0691 97.7937 31.7746 95.9539L66.8368 69.6963L74.6981 75.2675L74.828 75.3596H74.9872H75.1243H75.1809C75.4283 75.4593 75.6917 75.5133 75.9584 75.5194L75.9699 75.5197L75.9813 75.5194C76.248 75.5133 76.5114 75.4593 76.7589 75.3596H76.8154H76.9525H77.1096L77.2385 75.2697L84.941 69.9L119.976 96.0704C117.661 97.7391 114.861 98.6166 111.996 98.5611ZM124.01 50.7982L124.01 50.8082V50.8181V86.4918V86.4994L124.01 86.5069C124.074 88.6042 123.648 90.6847 122.772 92.5852L88.7755 67.1269L122.258 43.7844C123.499 45.9035 124.109 48.3372 124.01 50.7982ZM65.1195 14.7816L75.9699 6.07309L86.8202 14.7816H65.1195ZM37.3226 19.2809C37.3226 19.2414 37.3544 19.2096 37.3939 19.2096H114.546C114.585 19.2096 114.617 19.2414 114.617 19.2809V43.7013L75.9699 70.6393L37.3226 43.7013V19.2809Z" fill="#856883" stroke="#856883"/>
<path d="M85.6367 25.8655H47.9292C46.7001 25.8655 45.7038 26.8618 45.7038 28.0909C45.7038 29.32 46.7001 30.3163 47.9292 30.3163H85.6367C86.8658 30.3163 87.8621 29.32 87.8621 28.0909C87.8621 26.8618 86.8658 25.8655 85.6367 25.8655Z" fill="#856883" stroke="#856883"/>
<path d="M104.011 38.4802H47.9292C46.7001 38.4802 45.7038 39.4765 45.7038 40.7056C45.7038 41.9347 46.7001 42.931 47.9292 42.931H104.011C105.24 42.931 106.236 41.9347 106.236 40.7056C106.236 39.4765 105.24 38.4802 104.011 38.4802Z" fill="#856883" stroke="#856883"/>
<path d="M14.1677 105.45V97.45H6.16766V105.45H14.1677ZM22.9577 105.45V113.45H30.9577V105.45H22.9577ZM23.0477 77.07L31.0353 77.5138L32.0582 59.1022L17.9146 70.9339L23.0477 77.07ZM16.8077 82.29L11.6746 76.1539L11.6573 76.1684L11.6401 76.1829L16.8077 82.29ZM15.9977 82.74L13.7999 75.0478L13.7222 75.07L13.645 75.0938L15.9977 82.74ZM14.1077 82.62L10.1856 89.5926L10.4386 89.7349L10.7013 89.8585L14.1077 82.62ZM13.3877 82.02L19.8575 77.3146L19.8523 77.3074L13.3877 82.02ZM11.0477 78.81L5.86527 72.7155L0.21032 77.5241L4.583 83.5226L11.0477 78.81ZM24.2777 67.56V59.56H21.3361L19.0953 61.4655L24.2777 67.56ZM30.3677 67.56H38.3677V59.56H30.3677V67.56ZM30.3677 105.45H22.3677V113.45H30.3677V105.45ZM38.1677 105.45H46.1677V97.45H38.1677V105.45ZM38.1677 111V119H46.1677V111H38.1677ZM14.1677 111H6.16766V119H14.1677V111ZM14.1677 113.45H22.9577V97.45H14.1677V113.45ZM30.9577 105.45V80.16H14.9577V105.45H30.9577ZM30.9577 80.16C30.9577 79.3422 30.9827 78.4609 31.0353 77.5138L15.06 76.6262C14.9926 77.8391 14.9577 79.0178 14.9577 80.16H30.9577ZM17.9146 70.9339L11.6746 76.1539L21.9407 88.4261L28.1807 83.2061L17.9146 70.9339ZM11.6401 76.1829C12.1009 75.7931 12.8192 75.328 13.7999 75.0478L18.1954 90.4322C19.7361 89.992 20.9945 89.2269 21.9752 88.3971L11.6401 76.1829ZM13.645 75.0938C14.1117 74.9501 14.6439 74.86 15.2177 74.86V90.86C16.3114 90.86 17.3636 90.6898 18.3503 90.3862L13.645 75.0938ZM15.2177 74.86C15.9178 74.86 16.7205 75.008 17.514 75.3815L10.7013 89.8585C12.1748 90.552 13.7175 90.86 15.2177 90.86V74.86ZM18.0297 75.6474C18.3803 75.8446 19.1482 76.3393 19.8575 77.3146L6.91777 86.7254C7.94708 88.1407 9.19497 89.0354 10.1856 89.5926L18.0297 75.6474ZM19.8523 77.3074L17.5123 74.0974L4.583 83.5226L6.923 86.7326L19.8523 77.3074ZM16.23 84.9045L29.46 73.6545L19.0953 61.4655L5.86527 72.7155L16.23 84.9045ZM24.2777 75.56H30.3677V59.56H24.2777V75.56ZM22.3677 67.56V105.45H38.3677V67.56H22.3677ZM30.3677 113.45H38.1677V97.45H30.3677V113.45ZM30.1677 105.45V111H46.1677V105.45H30.1677ZM38.1677 103H14.1677V119H38.1677V103ZM22.1677 111V105.45H6.16766V111H22.1677Z" fill="#F2F4F5"/>
<path d="M14.1677 105.45H22.9577V80.16C22.9577 79.18 22.9877 78.15 23.0477 77.07L16.8077 82.29C16.5477 82.51 16.2777 82.66 15.9977 82.74C15.7377 82.82 15.4777 82.86 15.2177 82.86C14.8177 82.86 14.4477 82.78 14.1077 82.62C13.7877 82.44 13.5477 82.24 13.3877 82.02L11.0477 78.81L24.2777 67.56H30.3677V105.45H38.1677V111H14.1677V105.45Z" fill="#E0004D"/>
</svg>
