<svg width="1440" height="1265" viewBox="0 540 1440 725" fill="none" xmlns="http://www.w3.org/2000/svg">
<mask id="mask0" mask-type="alpha" maskUnits="userSpaceOnUse" x="0" y="0" width="1440" height="1360">
<rect width="1440" height="1360" fill="#C4C4C4" stroke="black" stroke-width="5"/>
</mask>
<g mask="url(#mask0)">
<path d="M1668.27 372.357C2471.09 587.471 3145.34 1137.25 3519.06 1883.35C3534.45 1916.62 3554.38 1951.1 3568.56 1988.89C3681.74 2237.78 3568.64 2532.88 3319.61 2645.85C3070.57 2758.83 2775.18 2645.68 2662 2396.8C2653.25 2375.02 2639.97 2352.04 2626.68 2329.05C2384.28 1836.7 1942.84 1352.64 1412.16 1210.45C881.489 1068.25 195.731 1205.82 -264.902 1509.79C-495.219 1661.78 -788.458 1685.59 -940.674 1455.39C-1092.89 1225.18 -926.121 910.825 -695.805 758.837C5.43042 300.776 865.454 157.243 1668.27 372.357Z" fill="#F2F4F5"/>
</g>
</svg>