<svg width="200" height="140" viewBox="0 0 150 140" fill="none" xmlns="http://www.w3.org/2000/svg">
    <g>
        <path fill-rule="evenodd" clip-rule="evenodd" d="M103.322 81.4143H114.317C123.024 81.4143 130.109 88.4988 130.109 97.2067C130.109 105.915 123.024 112.999 114.317 112.999H103.322H54.0423L56.8469 119.898C57.5141 121.54 57.2046 123.389 56.0386 124.724C54.8727 126.059 53.082 126.615 51.365 126.174L50.7446 126.015L47.6824 137.945C47.5022 138.648 47.0502 139.25 46.4259 139.619C46.001 139.87 45.5195 140 45.0339 140C44.8064 140 44.578 139.972 44.3541 139.914L35.0547 137.527C33.5921 137.152 32.7106 135.662 33.086 134.199L36.1479 122.269L35.5275 122.11C33.8106 121.669 32.5088 120.32 32.1298 118.588C31.7508 116.857 32.3699 115.087 33.7455 113.969L34.9402 112.999H25.6837C16.9761 112.999 9.8916 105.915 9.8916 97.2067C9.8916 88.4988 16.9758 81.4143 25.6837 81.4143H103.322ZM47.4579 120.459C48.168 120.039 48.9987 119.921 49.7974 120.126L51.1799 120.481L48.1385 112.999L47.0152 110.235L43.6133 112.999L38.4309 117.208L39.8156 117.564C40.6124 117.768 41.2837 118.271 41.7039 118.981C42.1242 119.691 42.2423 120.522 42.037 121.321L39.0625 132.91L43.0651 133.938L46.0398 122.347C46.2444 121.55 46.748 120.879 47.4579 120.459ZM106.056 107.53H51.8192L50.691 104.755C50.3645 103.952 49.6771 103.351 48.8376 103.136C47.9976 102.92 47.1062 103.115 46.4336 103.662L41.6719 107.53H25.6837C19.9913 107.53 15.3604 102.899 15.3604 97.2067C15.3604 91.5143 19.9916 86.8831 25.6837 86.8831H106.056H114.316C120.009 86.8831 124.64 91.5143 124.64 97.2067C124.64 102.899 120.008 107.53 114.316 107.53H106.056Z" fill="#856883"/>
        <path d="M26.5177 98.7784C26.5861 98.9452 26.6709 99.1038 26.7693 99.2515C26.8705 99.4019 26.9853 99.5413 27.1111 99.6671C27.2369 99.7932 27.3763 99.908 27.5267 100.006C27.6744 100.105 27.833 100.189 27.997 100.258C28.1638 100.326 28.3334 100.378 28.5084 100.414C28.6861 100.449 28.8638 100.468 29.0443 100.468C29.2221 100.468 29.3998 100.449 29.5775 100.414C29.7525 100.378 29.9248 100.326 30.0888 100.258C30.2529 100.189 30.4142 100.105 30.5619 100.006C30.7096 99.908 30.8517 99.7932 30.9775 99.6671C31.1033 99.5413 31.2181 99.4019 31.3166 99.2515C31.415 99.1038 31.4998 98.9452 31.5681 98.7784C31.6365 98.6144 31.6885 98.4424 31.724 98.2674C31.7596 98.0921 31.7787 97.9116 31.7787 97.7341C31.7787 97.5564 31.7596 97.3757 31.724 97.1982C31.6885 97.0259 31.6365 96.8537 31.5681 96.6869C31.4998 96.5225 31.415 96.3642 31.3166 96.2166C31.2181 96.0659 31.1033 95.9264 30.9775 95.8006C30.8517 95.6749 30.7096 95.56 30.5619 95.4588C30.4142 95.3604 30.2529 95.2756 30.0888 95.2073C29.9248 95.1389 29.7525 95.087 29.5775 95.0514C28.6888 94.874 27.7455 95.1635 27.1111 95.8006C26.9853 95.9264 26.8705 96.0659 26.7693 96.2166C26.6709 96.3642 26.5861 96.5225 26.5177 96.6869C26.4494 96.8537 26.3974 97.0259 26.3619 97.1982C26.3263 97.3757 26.3099 97.5564 26.3099 97.7341C26.3099 97.9116 26.3263 98.0924 26.3619 98.2674C26.3974 98.4424 26.4494 98.6146 26.5177 98.7784Z" fill="#856883"/>
        <path d="M39.9865 98.7785C40.0549 98.9453 40.1396 99.1039 40.2381 99.2515C40.3392 99.4019 40.4541 99.5414 40.5799 99.6672C40.7056 99.7932 40.8451 99.9081 40.9955 100.006C41.1431 100.105 41.3017 100.189 41.4658 100.258C41.6326 100.326 41.8049 100.378 41.9771 100.414C42.1549 100.449 42.3353 100.468 42.5131 100.468C42.6908 100.468 42.8713 100.449 43.0463 100.414C43.2213 100.378 43.3935 100.326 43.5576 100.258C43.7244 100.189 43.883 100.105 44.0306 100.006C44.181 99.9081 44.3205 99.7932 44.4463 99.6672C44.5721 99.5414 44.6869 99.4019 44.7853 99.2515C44.8838 99.1039 44.9685 98.9453 45.0369 98.7785C45.1053 98.6144 45.1572 98.4424 45.1928 98.2674C45.2283 98.0922 45.2474 97.9117 45.2474 97.7342C45.2474 97.5565 45.2283 97.3758 45.1928 97.1983C45.1572 97.026 45.1053 96.8538 45.0369 96.687C44.9685 96.5226 44.8838 96.3643 44.7853 96.2167C44.6869 96.066 44.5721 95.9265 44.4463 95.8007C43.8119 95.1636 42.8685 94.8738 41.9771 95.0515C41.8049 95.0871 41.6326 95.139 41.4658 95.2074C41.3017 95.2757 41.1431 95.3605 40.9955 95.4589C40.8451 95.5601 40.7056 95.675 40.5799 95.8007C40.4541 95.9265 40.3392 96.066 40.2381 96.2167C40.1396 96.3643 40.0549 96.5226 39.9865 96.687C39.9181 96.8538 39.8662 97.026 39.8306 97.1983C39.7951 97.3758 39.7787 97.5565 39.7787 97.7342C39.7787 97.9117 39.7951 98.0924 39.8306 98.2674C39.8662 98.4424 39.9181 98.6147 39.9865 98.7785Z" fill="#856883"/>
        <path d="M53.458 98.7785C53.5263 98.9453 53.6111 99.1039 53.7095 99.2515C53.808 99.4019 53.9228 99.5414 54.0486 99.6672C54.1744 99.7932 54.3138 99.9081 54.4642 100.006C54.6119 100.105 54.7705 100.189 54.9373 100.258C55.1013 100.326 55.2736 100.378 55.4486 100.414C55.6236 100.449 55.8041 100.468 55.9818 100.468C56.1595 100.468 56.34 100.449 56.515 100.414C56.69 100.378 56.8623 100.326 57.0264 100.258C57.1931 100.189 57.3517 100.105 57.4994 100.006C57.6498 99.9081 57.7892 99.7932 57.915 99.6672C58.0408 99.5414 58.1557 99.4019 58.2541 99.2515C58.3525 99.1039 58.4373 98.9453 58.5057 98.7785C58.574 98.6144 58.626 98.4424 58.6615 98.2674C58.6971 98.0922 58.7162 97.9117 58.7162 97.7342C58.7162 97.5565 58.6971 97.3758 58.6615 97.1983C58.6287 97.026 58.574 96.8538 58.5057 96.687C58.4373 96.5226 58.3525 96.3643 58.2541 96.2167C58.1557 96.066 58.0408 95.9265 57.915 95.8007C57.2806 95.1636 56.3346 94.8738 55.4486 95.0515C55.2736 95.0871 55.1013 95.139 54.9345 95.2074C54.7705 95.2757 54.6119 95.3605 54.4642 95.4589C54.3138 95.5601 54.1744 95.675 54.0486 95.8007C53.9228 95.9265 53.808 96.066 53.7095 96.2167C53.6111 96.3643 53.5263 96.5226 53.458 96.687C53.3896 96.8538 53.3349 97.026 53.3021 97.1983C53.2666 97.3758 53.2474 97.5565 53.2474 97.7342C53.2474 97.9117 53.2666 98.0924 53.3021 98.2674C53.3349 98.4424 53.3896 98.6147 53.458 98.7785Z" fill="#856883"/>
        <path d="M66.9267 98.7785C66.9951 98.9453 67.0799 99.1039 67.1783 99.2515C67.2767 99.4019 67.3916 99.5414 67.5174 99.6672C67.6432 99.7932 67.7826 99.9081 67.933 100.006C68.0807 100.105 68.2392 100.189 68.406 100.258C68.5701 100.326 68.7424 100.378 68.9174 100.414C69.0924 100.449 69.2729 100.468 69.4506 100.468C69.6283 100.468 69.8088 100.449 69.9838 100.414C70.1588 100.378 70.3311 100.326 70.4951 100.258C70.6619 100.189 70.8205 100.105 70.9682 100.006C71.1186 99.9081 71.258 99.7932 71.3838 99.6672C71.5096 99.5414 71.6244 99.4019 71.7229 99.2515C71.8213 99.1039 71.9061 98.9453 71.9744 98.7785C72.0428 98.6144 72.0975 98.4424 72.1303 98.2674C72.1658 98.0922 72.185 97.9117 72.185 97.7342C72.185 97.5565 72.1658 97.3758 72.1303 97.1983C72.0975 97.026 72.0428 96.8538 71.9744 96.687C71.9061 96.5226 71.8213 96.3643 71.7229 96.2167C71.6244 96.066 71.5096 95.9265 71.3838 95.8007C70.7494 95.1636 69.8033 94.8738 68.9174 95.0515C68.7424 95.0871 68.5701 95.139 68.406 95.2074C68.2392 95.2757 68.0807 95.3605 67.933 95.4589C67.7826 95.5601 67.6432 95.675 67.5174 95.8007C67.3916 95.9265 67.2767 96.066 67.1783 96.2167C67.0799 96.3643 66.9951 96.5226 66.9267 96.687C66.8584 96.8538 66.8064 97.026 66.7709 97.1983C66.7353 97.3758 66.7162 97.5565 66.7162 97.7342C66.7162 97.9117 66.7353 98.0924 66.7709 98.2674C66.8064 98.4424 66.8584 98.6147 66.9267 98.7785Z" fill="#856883"/>
        <path d="M80.3955 98.7803C80.4638 98.9471 80.5486 99.1057 80.647 99.2534C80.7455 99.4038 80.8603 99.5432 80.9861 99.669C81.1119 99.7951 81.2513 99.9099 81.4017 100.008C81.5494 100.107 81.708 100.191 81.8748 100.26C82.0388 100.328 82.2111 100.38 82.3861 100.416C82.5611 100.451 82.7416 100.47 82.9193 100.47C83.097 100.47 83.2775 100.451 83.4552 100.416C83.6275 100.38 83.7998 100.328 83.9666 100.26C84.1306 100.191 84.2892 100.107 84.4369 100.008C84.5873 99.9099 84.7267 99.7951 84.8525 99.669C84.9783 99.5432 85.0931 99.4038 85.1943 99.2534C85.2928 99.1057 85.3775 98.9471 85.4459 98.7803C85.5142 98.6163 85.5662 98.4443 85.6017 98.2693C85.6373 98.094 85.6537 97.9135 85.6537 97.7361C85.6537 97.5583 85.6373 97.3776 85.6017 97.2001C85.5662 97.0278 85.5142 96.8556 85.4459 96.6888C85.3775 96.5244 85.2928 96.3661 85.1943 96.2185C85.0931 96.0678 84.9783 95.9283 84.8525 95.8025C84.7267 95.6768 84.5873 95.5619 84.4369 95.4607C84.2892 95.3623 84.1306 95.2775 83.9666 95.2092C83.7998 95.1408 83.6275 95.0889 83.4552 95.0533C83.1025 94.9822 82.7388 94.9822 82.3861 95.0533C82.2111 95.0889 82.0388 95.1408 81.8748 95.2092C81.708 95.2775 81.5494 95.3623 81.4017 95.4607C81.2513 95.5619 81.1119 95.6768 80.9861 95.8025C80.8603 95.9283 80.7455 96.0678 80.647 96.2185C80.5486 96.3661 80.4638 96.5244 80.3955 96.6888C80.3271 96.8556 80.2752 97.0278 80.2396 97.2001C80.2041 97.3776 80.1849 97.5583 80.1849 97.7361C80.1849 97.9135 80.2041 98.0943 80.2396 98.2693C80.2752 98.4443 80.3271 98.6165 80.3955 98.7803Z" fill="#856883"/>
        <path d="M93.8642 98.7803C93.9326 98.9471 94.0174 99.1057 94.1158 99.2534C94.2142 99.4038 94.3291 99.5432 94.4549 99.669C94.5806 99.7951 94.7201 99.9099 94.8705 100.008C95.0181 100.107 95.1767 100.191 95.3435 100.26C95.5076 100.328 95.6799 100.38 95.8549 100.416C96.0299 100.451 96.2103 100.47 96.3881 100.47C96.5658 100.47 96.7463 100.451 96.924 100.416C97.0963 100.38 97.2685 100.328 97.4353 100.26C97.5994 100.191 97.758 100.107 97.9056 100.008C98.056 99.9099 98.1955 99.7951 98.3213 99.669C98.447 99.5432 98.5619 99.4038 98.6631 99.2534C98.7615 99.1057 98.8463 98.9471 98.9146 98.7803C98.983 98.6163 99.0349 98.4443 99.0705 98.2693C99.106 98.094 99.1224 97.9135 99.1224 97.7361C99.1224 97.5583 99.106 97.3776 99.0705 97.2001C99.0349 97.0278 98.983 96.8556 98.9146 96.6888C98.8463 96.5244 98.7615 96.3661 98.6631 96.2185C98.5619 96.0678 98.447 95.9283 98.3213 95.8025C98.1955 95.6768 98.056 95.5619 97.9056 95.4607C97.758 95.3623 97.5994 95.2775 97.4353 95.2092C97.2685 95.1408 97.0963 95.0889 96.924 95.0533C96.5713 94.9822 96.2076 94.9822 95.8549 95.0533C95.6799 95.0889 95.5076 95.1408 95.3435 95.2092C95.1767 95.2775 95.0181 95.3623 94.8705 95.4607C94.7201 95.5619 94.5806 95.6768 94.4549 95.8025C94.3291 95.9283 94.2142 96.0678 94.1158 96.2185C94.0174 96.3661 93.9326 96.5244 93.8642 96.6888C93.7959 96.8556 93.7439 97.0278 93.7084 97.2001C93.6728 97.3776 93.6537 97.5583 93.6537 97.7361C93.6537 97.9135 93.6728 98.0943 93.7084 98.2693C93.7439 98.4443 93.7959 98.6165 93.8642 98.7803Z" fill="#856883"/>
        <path d="M107.333 98.7803C107.401 98.9471 107.486 99.1057 107.585 99.2534C107.683 99.4038 107.798 99.5432 107.924 99.669C108.049 99.7951 108.189 99.9099 108.339 100.008C108.487 100.107 108.645 100.191 108.812 100.26C108.976 100.328 109.149 100.38 109.324 100.416C109.499 100.451 109.679 100.47 109.857 100.47C110.035 100.47 110.215 100.451 110.393 100.416C110.565 100.38 110.737 100.328 110.904 100.26C111.068 100.191 111.227 100.107 111.374 100.008C111.525 99.9099 111.664 99.7951 111.79 99.669C111.916 99.5432 112.031 99.4038 112.132 99.2534C112.23 99.1057 112.315 98.9471 112.383 98.7803C112.452 98.6163 112.504 98.4443 112.539 98.2693C112.575 98.094 112.591 97.9135 112.591 97.7361C112.591 97.5583 112.575 97.3776 112.539 97.2001C112.504 97.0278 112.452 96.8556 112.383 96.6888C112.315 96.5244 112.23 96.3661 112.132 96.2185C112.031 96.0678 111.916 95.9283 111.79 95.8025C111.664 95.6768 111.525 95.5619 111.374 95.4607C111.227 95.3623 111.068 95.2775 110.904 95.2092C110.737 95.1408 110.565 95.0889 110.393 95.0533C110.04 94.9822 109.676 94.9822 109.324 95.0533C109.149 95.0889 108.976 95.1408 108.812 95.2092C108.645 95.2775 108.487 95.3623 108.339 95.4607C108.189 95.5619 108.049 95.6768 107.924 95.8025C107.798 95.9283 107.683 96.0678 107.585 96.2185C107.486 96.3661 107.401 96.5244 107.333 96.6888C107.265 96.8556 107.213 97.0278 107.177 97.2001C107.142 97.3776 107.122 97.5583 107.122 97.7361C107.122 97.9135 107.142 98.0943 107.177 98.2693C107.213 98.4443 107.265 98.6165 107.333 98.7803Z" fill="#856883"/>
        <path d="M46.0083 69.115C46.0753 69.1787 46.1445 69.2405 46.2183 69.2977C52.4973 74.1556 59.9206 76.905 67.7994 77.3151C67.8555 77.3182 67.9118 77.3209 67.9679 77.3236C68.2178 77.3356 68.4685 77.3449 68.7193 77.3523C68.7931 77.3545 68.8669 77.3573 68.9408 77.3592C69.25 77.3663 69.5596 77.3709 69.8702 77.3709C70.1825 77.3709 70.4939 77.3663 70.8051 77.3592C70.8762 77.3575 70.9467 77.3548 71.0175 77.3526C71.2746 77.3452 71.5308 77.3357 71.7867 77.3233C71.8359 77.3209 71.8849 77.3184 71.9338 77.3157C79.9417 76.9014 87.4643 74.0774 93.8012 69.0819C93.8882 69.0133 93.9699 68.9392 94.047 68.8615C102.886 61.7655 108.555 50.8762 108.555 38.6857C108.555 17.3543 91.2011 0 69.8702 0C48.5393 0 31.1844 17.3543 31.1844 38.6855C31.1844 51.0211 36.9879 62.0264 46.0083 69.115ZM73.4222 71.7116C73.2526 71.7294 73.0828 71.7458 72.9127 71.7611C72.7246 71.7783 72.5368 71.7955 72.3478 71.8095C72.02 71.8333 71.6913 71.8524 71.3615 71.8666C71.2486 71.8718 71.1357 71.8756 71.0225 71.8795C70.6394 71.8923 70.2555 71.9016 69.8699 71.9016C69.4893 71.9016 69.1103 71.8926 68.7319 71.88C68.6203 71.8762 68.509 71.8721 68.398 71.8674C68.0833 71.8538 67.7696 71.8357 67.4566 71.8136C67.2744 71.8004 67.0929 71.7846 66.9116 71.7685C66.7153 71.7512 66.5192 71.7326 66.3234 71.7121C66.1049 71.6889 65.8867 71.6648 65.6694 71.6372C65.6308 71.6323 65.5925 71.6265 65.554 71.6216C60.0417 70.9033 54.95 68.829 50.6253 65.7446V60.794C50.6253 54.2788 53.8612 48.509 58.8066 44.995C61.8976 47.4106 65.7817 48.8557 69.9995 48.8557C74.2173 48.8557 78.1018 47.4109 81.1924 44.995C86.1378 48.509 89.3737 54.2788 89.3737 60.794V65.5551H89.374C84.7966 68.887 79.3399 71.0797 73.4222 71.7116ZM69.8702 5.46876C88.1859 5.46876 103.087 20.3695 103.087 38.6855C103.087 47.0587 99.9713 54.7171 94.8403 60.5654C94.7678 52.5813 90.9107 45.4853 84.979 40.9881C87.0169 38.047 88.2151 34.4822 88.2151 30.6409C88.2151 29.7372 88.1482 28.8283 88.0158 27.9393C87.7935 26.4458 86.4034 25.4152 84.9087 25.6373C83.4149 25.8596 82.3844 27.2503 82.6067 28.7441C82.6994 29.3672 82.7464 30.0054 82.7464 30.6409C82.7464 33.4581 81.826 36.0637 80.2723 38.176C79.0118 39.89 77.3337 41.2771 75.389 42.1882C73.7511 42.9557 71.9254 43.3872 70.0004 43.3872C68.0753 43.3872 66.2496 42.9557 64.6117 42.1882C62.667 41.2771 60.9889 39.89 59.7284 38.176C58.1747 36.0637 57.2543 33.4584 57.2543 30.6409C57.2543 23.6127 62.9722 17.8949 70.0004 17.8949C70.9678 17.8949 71.9311 18.0032 72.8641 18.2173C74.3376 18.556 75.8032 17.6351 76.1404 16.1629C76.4778 14.691 75.5583 13.2243 74.0863 12.8869C72.7533 12.5812 71.3785 12.4261 70.0006 12.4261C59.957 12.4261 51.7858 20.5973 51.7858 30.6409C51.7858 34.4822 52.984 38.047 55.022 40.9881C49.0334 45.5282 45.1577 52.7167 45.1577 60.794V60.8547C39.8732 54.9709 36.6535 47.1976 36.6535 38.6855C36.6532 20.3695 51.5542 5.46876 69.8702 5.46876Z" fill="#856883"/>
        <path d="M78.8209 21.1562C78.8893 21.3203 78.974 21.4789 79.0725 21.6265C79.1709 21.7769 79.2857 21.9164 79.4115 22.0421C79.5373 22.1709 79.6768 22.283 79.8271 22.3839C79.9748 22.4824 80.1334 22.5674 80.3002 22.6358C80.4643 22.7041 80.6365 22.7558 80.8115 22.7914C80.9865 22.8269 81.167 22.8433 81.3447 22.8433C81.5225 22.8433 81.7029 22.8266 81.8779 22.7914C82.0529 22.7558 82.2252 22.7041 82.392 22.6358C82.5561 22.5674 82.7146 22.4824 82.8623 22.3839C83.0127 22.283 83.1521 22.1709 83.2779 22.0421C83.4037 21.9164 83.5186 21.7769 83.617 21.6265C83.7154 21.4789 83.8002 21.3203 83.8685 21.1562C83.9369 20.9894 83.9916 20.8199 84.0244 20.6449C84.06 20.4671 84.0791 20.2894 84.0791 20.1089C84.0791 19.9312 84.06 19.7504 84.0244 19.5757C83.9916 19.4007 83.9369 19.2282 83.8685 19.0644C83.8002 18.9006 83.7154 18.7393 83.617 18.5916C83.5186 18.441 83.4037 18.3015 83.2779 18.1757C83.1521 18.0499 83.0127 17.9351 82.8623 17.8367C82.7146 17.7385 82.5561 17.6534 82.392 17.5851C82.2252 17.5167 82.0529 17.465 81.8779 17.4295C81.5252 17.3581 81.1643 17.3581 80.8115 17.4295C80.6365 17.465 80.4643 17.5167 80.3002 17.5851C80.1334 17.6534 79.9748 17.7385 79.8271 17.8367C79.6768 17.9351 79.5373 18.0499 79.4115 18.1757C79.2857 18.3015 79.1709 18.441 79.0725 18.5916C78.974 18.7393 78.8893 18.9006 78.8209 19.0644C78.7525 19.2282 78.7006 19.4007 78.665 19.5757C78.6295 19.7507 78.6104 19.9312 78.6104 20.1089C78.6104 20.2894 78.6295 20.4671 78.665 20.6449C78.7006 20.8199 78.7525 20.9894 78.8209 21.1562Z" fill="#856883"/>
    </g>
    <g transform="translate(-25,65)">
        <path d="M32.2477 9.01L29.5213 16.5311L29.5775 16.5515L29.634 16.571L32.2477 9.01ZM36.3877 11.38L31.0533 17.3419L31.0826 17.3681L31.1121 17.3941L36.3877 11.38ZM38.9977 14.92L31.6783 18.1491L31.6981 18.1939L31.7184 18.2385L38.9977 14.92ZM39.4477 22.99L31.789 20.678L31.7748 20.7253L31.7611 20.7727L39.4477 22.99ZM38.0977 25.72L31.7567 20.8423L31.7169 20.894L31.6779 20.9464L38.0977 25.72ZM35.9377 27.7L31.6835 20.9249L31.6474 20.9475L31.6116 20.9706L35.9377 27.7ZM33.0577 29.05L30.5278 21.4605L7.12777 29.2606L30.6514 36.6795L33.0577 29.05ZM38.8777 32.8L32.5142 37.6483L32.5142 37.6483L38.8777 32.8ZM39.5977 44.86L46.8044 48.3331L46.8044 48.3331L39.5977 44.86ZM36.3577 49.06L41.4433 55.2354L41.4702 55.2133L41.4968 55.191L36.3577 49.06ZM31.6177 51.61L29.1641 43.9955L29.1516 43.9996L29.1392 44.0036L31.6177 51.61ZM20.2477 51.73L22.607 44.0858H22.607L20.2477 51.73ZM16.0177 49.51L10.9574 55.7063H10.9574L16.0177 49.51ZM12.9577 45.91L6.07218 49.9831H6.07218L12.9577 45.91ZM10.7977 40.99L7.74483 33.5954L0.915821 36.4147L3.18399 43.446L10.7977 40.99ZM14.0677 39.64L17.1205 47.0346L17.1699 47.0142L17.219 46.9932L14.0677 39.64ZM17.1577 39.61L13.3023 46.6197L13.3736 46.6589L13.4456 46.6967L17.1577 39.61ZM18.1177 40.57L25.232 36.9112L25.2182 36.8845L25.2043 36.8579L18.1177 40.57ZM19.2877 42.64L12.4813 46.8439L12.5254 46.9154L12.5711 46.986L19.2877 42.64ZM20.8477 44.47L15.4959 50.4164L15.5516 50.4665L15.6082 50.5155L20.8477 44.47ZM22.9477 45.76L19.8185 53.1226L19.9283 53.1693L20.0393 53.2126L22.9477 45.76ZM29.1577 45.64L32.2901 53.0012L32.3559 52.9732L32.4212 52.9441L29.1577 45.64ZM31.4977 44.02L25.7545 38.4508L25.7103 38.4964L25.6669 38.5426L31.4977 44.02ZM32.9077 41.83L25.455 38.9217L25.4357 38.9712L25.417 39.021L32.9077 41.83ZM33.0577 36.55L25.3072 38.5327L25.3129 38.5548L25.3187 38.5769L33.0577 36.55ZM31.6777 34.36L26.4713 40.434L26.4713 40.4341L31.6777 34.36ZM28.6477 32.95L26.6234 40.6897L26.6378 40.6934L26.6522 40.6971L28.6477 32.95ZM23.3977 32.44H15.3977V40.44H23.3977V32.44ZM23.3977 27.16L23.3098 19.1605L15.3977 19.2474V27.16H23.3977ZM27.9277 26.65L29.989 34.3799H29.989L27.9277 26.65ZM30.7777 25.33L35.7752 31.577L35.7858 31.5685L35.7963 31.56L30.7777 25.33ZM32.2777 23.26L24.7268 20.6172V20.6172L32.2777 23.26ZM31.0177 15.97L25.5186 21.7803L25.5462 21.8065L25.574 21.8323L31.0177 15.97ZM22.0477 15.79L27.0188 22.058L27.0517 22.0319L27.0843 22.0055L22.0477 15.79ZM19.6177 19.36L27.2463 21.769L27.2479 21.764L19.6177 19.36ZM18.6277 21.01L23.476 27.3735L23.5697 27.3021L23.6613 27.2279L18.6277 21.01ZM15.9577 21.4L14.5639 29.2777L14.6032 29.2846L14.6425 29.2911L15.9577 21.4ZM12.0577 20.71L4.13959 19.568L3.03339 27.2376L10.6639 28.5877L12.0577 20.71ZM13.7977 15.25L20.8036 19.1122L20.814 19.0934L20.8242 19.0746L13.7977 15.25ZM17.0077 11.32L22.0524 17.5289L22.0632 17.5201L17.0077 11.32ZM21.4477 8.95L23.8391 16.5842L23.8674 16.5753L23.8957 16.5662L21.4477 8.95ZM26.8477 16.14C28.0773 16.14 28.9335 16.318 29.5213 16.5311L34.974 1.48891C32.3618 0.541957 29.618 0.139999 26.8477 0.139999V16.14ZM29.634 16.571C30.3708 16.8257 30.7951 17.1109 31.0533 17.3419L41.722 5.41807C39.7002 3.60909 37.3645 2.31429 34.8613 1.449L29.634 16.571ZM31.1121 17.3941C31.3944 17.6417 31.5583 17.8772 31.6783 18.1491L46.317 11.6909C45.237 9.24284 43.6609 7.11834 41.6632 5.36593L31.1121 17.3941ZM31.7184 18.2385C31.8365 18.4976 31.9277 18.8283 31.9277 19.33H47.9277C47.9277 16.6717 47.3988 14.0624 46.2769 11.6015L31.7184 18.2385ZM31.9277 19.33C31.9277 20.1109 31.835 20.5257 31.789 20.678L47.1063 25.302C47.7003 23.3343 47.9277 21.3091 47.9277 19.33H31.9277ZM31.7611 20.7727C31.7344 20.8653 31.7146 20.9052 31.7141 20.9063C31.7135 20.9074 31.7167 20.9009 31.7243 20.8887C31.7319 20.8764 31.7427 20.8605 31.7567 20.8423L44.4386 30.5977C45.7082 28.9472 46.5842 27.1142 47.1342 25.2073L31.7611 20.7727ZM31.6779 20.9464C31.6838 20.9386 31.6907 20.9301 31.6983 20.9217C31.7058 20.9133 31.7123 20.9069 31.7169 20.9028C31.7213 20.8987 31.7221 20.8984 31.7178 20.9016C31.7134 20.905 31.7025 20.9129 31.6835 20.9249L40.1918 34.4751C41.8533 33.4318 43.3195 32.1045 44.5174 30.4936L31.6779 20.9464ZM31.6116 20.9706C31.404 21.104 31.062 21.2825 30.5278 21.4605L35.5875 36.6395C37.2133 36.0975 38.7913 35.376 40.2637 34.4294L31.6116 20.9706ZM30.6514 36.6795C32.1335 37.147 32.4902 37.6168 32.5142 37.6483L45.2411 27.9517C42.7051 24.6232 39.1818 22.593 35.4639 21.4205L30.6514 36.6795ZM32.5142 37.6483C32.5306 37.6698 32.7977 37.9762 32.7977 39.13H48.7977C48.7977 35.2038 47.7847 31.2902 45.2411 27.9517L32.5142 37.6483ZM32.7977 39.13C32.7977 40.2933 32.5862 40.9816 32.3909 41.3869L46.8044 48.3331C48.2091 45.4184 48.7977 42.2867 48.7977 39.13H32.7977ZM32.3909 41.3869C32.0643 42.0645 31.6749 42.5464 31.2185 42.929L41.4968 55.191C43.7604 53.2936 45.531 50.9755 46.8044 48.3331L32.3909 41.3869ZM31.272 42.8846C30.7464 43.3174 30.0749 43.702 29.1641 43.9955L34.0712 59.2245C36.7604 58.3579 39.2489 57.0426 41.4433 55.2354L31.272 42.8846ZM29.1392 44.0036C28.2125 44.3056 27.1635 44.48 25.9477 44.48V60.48C28.7318 60.48 31.4629 60.0744 34.0961 59.2164L29.1392 44.0036ZM25.9477 44.48C24.3514 44.48 23.2805 44.2937 22.607 44.0858L17.8883 59.3742C20.4548 60.1663 23.184 60.48 25.9477 60.48V44.48ZM22.607 44.0858C21.8789 43.8611 21.407 43.5825 21.0779 43.3137L10.9574 55.7063C13.0283 57.3975 15.3764 58.5989 17.8883 59.3742L22.607 44.0858ZM21.0779 43.3137C20.6525 42.9663 20.2356 42.5003 19.8431 41.8369L6.07218 49.9831C7.35975 52.1597 8.98278 54.0937 10.9574 55.7063L21.0779 43.3137ZM19.8431 41.8369C19.3544 41.0106 18.8616 39.9299 18.4113 38.534L3.18399 43.446C3.93367 45.7701 4.88095 47.9694 6.07218 49.9831L19.8431 41.8369ZM13.8505 48.3846L17.1205 47.0346L11.0148 32.2454L7.74483 33.5954L13.8505 48.3846ZM17.219 46.9932C16.8344 47.158 16.3354 47.28 15.7777 47.28V31.28C14.0599 31.28 12.4209 31.642 10.9163 32.2868L17.219 46.9932ZM15.7777 47.28C15.1395 47.28 14.2394 47.1351 13.3023 46.6197L21.013 32.6003C19.276 31.6449 17.4558 31.28 15.7777 31.28V47.28ZM13.4456 46.6967C12.4236 46.1613 11.5663 45.3041 11.031 44.2821L25.2043 36.8579C24.229 34.9959 22.7317 33.4987 20.8697 32.5233L13.4456 46.6967ZM11.0034 44.2288C11.4603 45.1173 11.9532 45.989 12.4813 46.8439L26.094 38.4361C25.7821 37.931 25.495 37.4227 25.232 36.9112L11.0034 44.2288ZM12.5711 46.986C13.3923 48.2552 14.3708 49.4037 15.4959 50.4164L26.1994 38.5236C26.1246 38.4563 26.063 38.3848 26.0042 38.294L12.5711 46.986ZM15.6082 50.5155C16.8955 51.6311 18.3231 52.4871 19.8185 53.1226L26.0768 38.3974C26.0216 38.3739 26.0024 38.3612 26.01 38.3659C26.0136 38.3681 26.0228 38.374 26.0365 38.384C26.0503 38.3941 26.0675 38.4075 26.0871 38.4245L15.6082 50.5155ZM20.0393 53.2126C22.0007 53.978 24.0021 54.24 25.8577 54.24V38.24C25.7677 38.24 25.7012 38.2368 25.6564 38.2333C25.6117 38.2299 25.5911 38.2265 25.5922 38.2267C25.5936 38.2269 25.6912 38.2431 25.856 38.3074L20.0393 53.2126ZM25.8577 54.24C27.9501 54.24 30.1573 53.9088 32.2901 53.0012L26.0252 38.2788C26.1503 38.2255 26.2167 38.2154 26.1966 38.219C26.1738 38.2232 26.0671 38.24 25.8577 38.24V54.24ZM32.4212 52.9441C34.1976 52.1503 35.8894 51.0293 37.3284 49.4974L25.6669 38.5426C25.7605 38.4429 25.8427 38.3779 25.894 38.3425C25.9434 38.3082 25.9505 38.3108 25.8941 38.3359L32.4212 52.9441ZM37.2409 49.5892C38.588 48.1999 39.6832 46.5459 40.3983 44.639L25.417 39.021C25.4701 38.8794 25.5356 38.7526 25.6037 38.6468C25.671 38.5423 25.7281 38.478 25.7545 38.4508L37.2409 49.5892ZM40.3603 44.7383C41.0152 43.06 41.3877 41.2561 41.3877 39.37H25.3877C25.3877 39.2561 25.3991 39.1531 25.4157 39.0679C25.4321 38.9838 25.4503 38.9338 25.455 38.9217L40.3603 44.7383ZM41.3877 39.37C41.3877 37.7762 41.2201 36.1399 40.7966 34.5231L25.3187 38.5769C25.3352 38.6401 25.3877 38.8838 25.3877 39.37H41.3877ZM40.8081 34.5673C40.1642 32.0503 38.781 29.912 36.884 28.2859L26.4713 40.4341C26.2547 40.2484 26.0048 39.9802 25.7793 39.6225C25.5524 39.2622 25.3977 38.8864 25.3072 38.5327L40.8081 34.5673ZM36.884 28.286C34.9191 26.6017 32.6263 25.7137 30.6431 25.2029L26.6522 40.6971C26.9389 40.771 27.0441 40.8219 27.0199 40.8106C26.9961 40.7996 26.776 40.6952 26.4713 40.434L36.884 28.286ZM30.6719 25.2103C28.4269 24.6232 25.9064 24.44 23.3977 24.44V40.44C25.289 40.44 26.2684 40.5968 26.6234 40.6897L30.6719 25.2103ZM31.3977 32.44V27.16H15.3977V32.44H31.3977ZM23.4856 35.1595C25.6934 35.1353 27.9222 34.931 29.989 34.3799L25.8664 18.9201C25.5331 19.009 24.7419 19.1447 23.3098 19.1605L23.4856 35.1595ZM29.989 34.3799C31.8738 33.8773 33.9443 33.0416 35.7752 31.577L25.7801 19.083C26.0082 18.9006 26.1641 18.8272 26.178 18.8208C26.1869 18.8167 26.1676 18.8261 26.1145 18.8449C26.0616 18.8636 25.9801 18.8898 25.8664 18.9201L29.989 34.3799ZM35.7963 31.56C37.569 30.132 39.0111 28.2383 39.8285 25.9028L24.7268 20.6172C24.8444 20.281 25.0119 19.9631 25.2147 19.6833C25.4146 19.4074 25.6132 19.2174 25.759 19.1L35.7963 31.56ZM39.8285 25.9028C40.4424 24.1488 40.6977 22.362 40.6977 20.62H24.6977C24.6977 20.7111 24.691 20.7493 24.692 20.7431C24.6925 20.74 24.6947 20.7268 24.7003 20.7047C24.7058 20.6825 24.7143 20.6529 24.7268 20.6172L39.8285 25.9028ZM40.6977 20.62C40.6977 17.1411 39.7205 13.134 36.4613 10.1077L25.574 21.8323C25.128 21.4181 24.8721 20.9586 24.7537 20.6308C24.6511 20.3471 24.6977 20.2945 24.6977 20.62H40.6977ZM36.5167 10.1596C33.5537 7.35531 29.8615 6.38 26.4277 6.38V22.38C26.6778 22.38 26.6368 22.4148 26.4116 22.3368C26.158 22.249 25.8248 22.0702 25.5186 21.7803L36.5167 10.1596ZM26.4277 6.38C23.1762 6.38 19.8408 7.28144 17.011 9.57454L27.0843 22.0055C26.8754 22.1748 26.6488 22.2882 26.4641 22.3476C26.2949 22.4021 26.2594 22.38 26.4277 22.38V6.38ZM17.0765 9.52202C14.6197 11.4705 12.9105 14.0261 11.9874 16.9559L27.2479 21.764C27.258 21.7319 27.2451 21.7836 27.1835 21.874C27.1206 21.9664 27.0541 22.03 27.0188 22.058L17.0765 9.52202ZM11.989 16.9509C12.0098 16.885 12.3431 15.8048 13.5941 14.7921L23.6613 27.2279C25.7523 25.5352 26.7455 23.355 27.2463 21.769L11.989 16.9509ZM13.7793 14.6465C15.1088 13.6336 16.4137 13.49 16.9777 13.49V29.49C18.9016 29.49 21.3066 29.0264 23.476 27.3735L13.7793 14.6465ZM16.9777 13.49C17.1545 13.49 17.2574 13.5063 17.2729 13.5088L14.6425 29.2911C15.3779 29.4137 16.1608 29.49 16.9777 29.49V13.49ZM17.3514 13.5223L13.4514 12.8323L10.6639 28.5877L14.5639 29.2777L17.3514 13.5223ZM19.9757 21.852C20.1623 20.5584 20.4845 19.6911 20.8036 19.1122L6.79173 11.3878C5.39082 13.9289 4.55301 16.7016 4.13959 19.568L19.9757 21.852ZM20.8242 19.0746C21.2309 18.3274 21.6529 17.8535 22.0524 17.5289L11.9629 5.11109C9.80238 6.86652 8.08438 9.01265 6.7711 11.4254L20.8242 19.0746ZM22.0632 17.5201C22.5452 17.1271 23.1136 16.8115 23.8391 16.5842L19.0562 1.3158C16.4617 2.12854 14.0701 3.3929 11.9522 5.11985L22.0632 17.5201ZM23.8957 16.5662C24.7181 16.3019 25.6858 16.14 26.8477 16.14V0.139999C24.1695 0.139999 21.5372 0.518099 18.9996 1.33377L23.8957 16.5662Z" fill="#F2F4F5"/>
        <path d="M26.8477 8.14C28.8477 8.14 30.6477 8.43 32.2477 9.01C33.8677 9.57 35.2477 10.36 36.3877 11.38C37.5277 12.38 38.3977 13.56 38.9977 14.92C39.6177 16.28 39.9277 17.75 39.9277 19.33C39.9277 20.71 39.7677 21.93 39.4477 22.99C39.1477 24.03 38.6977 24.94 38.0977 25.72C37.5177 26.5 36.7977 27.16 35.9377 27.7C35.0977 28.24 34.1377 28.69 33.0577 29.05C35.6577 29.87 37.5977 31.12 38.8777 32.8C40.1577 34.48 40.7977 36.59 40.7977 39.13C40.7977 41.29 40.3977 43.2 39.5977 44.86C38.7977 46.52 37.7177 47.92 36.3577 49.06C34.9977 50.18 33.4177 51.03 31.6177 51.61C29.8377 52.19 27.9477 52.48 25.9477 52.48C23.7677 52.48 21.8677 52.23 20.2477 51.73C18.6277 51.23 17.2177 50.49 16.0177 49.51C14.8177 48.53 13.7977 47.33 12.9577 45.91C12.1177 44.49 11.3977 42.85 10.7977 40.99L14.0677 39.64C14.6277 39.4 15.1977 39.28 15.7777 39.28C16.2977 39.28 16.7577 39.39 17.1577 39.61C17.5777 39.83 17.8977 40.15 18.1177 40.57C18.4777 41.27 18.8677 41.96 19.2877 42.64C19.7277 43.32 20.2477 43.93 20.8477 44.47C21.4477 44.99 22.1477 45.42 22.9477 45.76C23.7677 46.08 24.7377 46.24 25.8577 46.24C27.1177 46.24 28.2177 46.04 29.1577 45.64C30.0977 45.22 30.8777 44.68 31.4977 44.02C32.1377 43.36 32.6077 42.63 32.9077 41.83C33.2277 41.01 33.3877 40.19 33.3877 39.37C33.3877 38.33 33.2777 37.39 33.0577 36.55C32.8377 35.69 32.3777 34.96 31.6777 34.36C30.9777 33.76 29.9677 33.29 28.6477 32.95C27.3477 32.61 25.5977 32.44 23.3977 32.44V27.16C25.2177 27.14 26.7277 26.97 27.9277 26.65C29.1277 26.33 30.0777 25.89 30.7777 25.33C31.4977 24.75 31.9977 24.06 32.2777 23.26C32.5577 22.46 32.6977 21.58 32.6977 20.62C32.6977 18.56 32.1377 17.01 31.0177 15.97C29.8977 14.91 28.3677 14.38 26.4277 14.38C24.6677 14.38 23.2077 14.85 22.0477 15.79C20.8877 16.71 20.0777 17.9 19.6177 19.36C19.3777 20.12 19.0477 20.67 18.6277 21.01C18.2077 21.33 17.6577 21.49 16.9777 21.49C16.6577 21.49 16.3177 21.46 15.9577 21.4L12.0577 20.71C12.3577 18.63 12.9377 16.81 13.7977 15.25C14.6577 13.67 15.7277 12.36 17.0077 11.32C18.3077 10.26 19.7877 9.47 21.4477 8.95C23.1277 8.41 24.9277 8.14 26.8477 8.14Z" fill="#E0004D"/>
    </g>
</svg>