<svg width="1440" height="700" viewBox="0 23 1440 700" fill="none" xmlns="http://www.w3.org/2000/svg">
<g clip-path="url(#clip0)">
<rect width="1440" height="723" fill="white"/>
<path d="M2333.14 315.324C3632.64 778.853 4665.99 1755.89 5169.37 3000.23C5189.71 3055.51 5217.39 3113.42 5234.99 3175.74C5383.83 3589.1 5149.6 4041.94 4718.25 4184.29C4286.9 4326.64 3814.11 4101.96 3665.26 3688.6C3654.16 3652.62 3635.7 3614.01 3617.25 3575.41C3292.08 2754.91 2606.25 2109.98 1747.27 1803.58C888.281 1497.18 -63.1022 1558.11 -875.906 1972.7C-1282.31 2179.99 -1777.78 2035.28 -1994.39 1645.79C-2211 1256.29 -2060.25 781.68 -1653.85 574.387C-417.234 -49.2867 1033.65 -148.205 2333.14 315.324Z" fill="#F2F4F5"/>
</g>
<defs>
<clipPath id="clip0">
<rect width="1440" height="723" fill="white"/>
</clipPath>
</defs>
</svg>
