<svg width="375" height="667" viewBox="0 0 375 667" fill="none" xmlns="http://www.w3.org/2000/svg">
<g clip-path="url(#clip0)">
<path d="M270.237 30.6879C1033.63 103.339 1742.02 388.011 2215.08 813.228C2235.03 832.278 2259.29 851.739 2278.96 873.622C2426.4 1016.29 2378.14 1203.23 2174.08 1289.58C1970.01 1375.92 1682.93 1328.59 1535.49 1185.92C1523.63 1173.36 1507.46 1160.39 1491.28 1147.41C1182.92 866.507 713.357 678.888 208.739 630.865C-295.878 582.842 -779.276 619.239 -1139.42 836.524C-1319.5 945.166 -1614.06 989.098 -1793.32 860.552C-1972.57 732.007 -1972.01 543.39 -1791.94 434.747C-1242.82 106.808 -493.159 -41.9629 270.237 30.6879Z" fill="#FAFAFA"/>
</g>
<defs>
<clipPath id="clip0">
<rect width="375" height="667" fill="white"/>
</clipPath>
</defs>
</svg>
