<svg width="375" height="2642" viewBox="0 0 375 2642" fill="none" xmlns="http://www.w3.org/2000/svg">
<mask id="mask0" mask-type="alpha" maskUnits="userSpaceOnUse" x="0" y="0" width="375" height="2642">
<rect width="375" height="2642" fill="#C4C4C4"/>
</mask>
<g mask="url(#mask0)">
<path d="M617.502 64.3704C1542.02 64.3703 2424.76 302.025 3041.11 717.921C3067.22 736.683 3098.56 755.445 3124.68 777.335C3317.94 918.051 3281.38 1127.56 3046.33 1243.26C2811.28 1358.96 2461.32 1337.07 2268.06 1196.36C2252.39 1183.85 2231.5 1171.34 2210.6 1158.83C1808.41 883.654 1194.74 648.152 583.614 648.152C-27.5101 648.152 -724.722 855.027 -1132.14 1130.21C-1335.85 1267.8 -1644.06 1333.72 -1873.89 1211.76C-2103.71 1089.81 -2015.03 858.638 -1811.32 721.048C-1189.75 305.152 -307.018 64.3704 617.502 64.3704Z" fill="#F2F4F5"/>
<rect x="-539" y="492.778" width="1555" height="2383.58" fill="#F2F4F5"/>
</g>
</svg>
