<svg width="1440" height="622" viewBox="0 0 1440 622" fill="none" xmlns="http://www.w3.org/2000/svg">
<g clip-path="url(#clip0)">
<path d="M1165.45 24.7573C2067.24 83.3679 2904.05 313.025 3462.87 656.067C3486.43 671.436 3515.09 687.136 3538.33 704.79C3712.5 819.888 3655.49 970.697 3414.43 1040.36C3173.37 1110.02 2834.25 1071.84 2660.08 956.737C2646.07 946.602 2626.96 936.136 2607.86 925.669C2243.59 699.05 1688.9 547.689 1092.8 508.947C496.701 470.204 -74.3308 499.567 -499.771 674.861C-712.491 762.507 -1060.46 797.949 -1272.2 694.246C-1483.95 590.542 -1483.3 438.377 -1270.58 350.73C-621.912 86.1667 263.656 -33.8534 1165.45 24.7573Z" fill="#F2F4F5"/>
</g>
<defs>
<clipPath id="clip0">
<rect width="1440" height="622" fill="white"/>
</clipPath>
</defs>
</svg>
