<svg width="375" height="1118" viewBox="0 0 375 1118" fill="none" xmlns="http://www.w3.org/2000/svg">
<mask id="mask0" mask-type="alpha" maskUnits="userSpaceOnUse" x="0" y="0" width="375" height="1118">
<rect width="375" height="1118" fill="#C4C4C4"/>
</mask>
<g mask="url(#mask0)">
<path d="M-166.601 718.281C-1026.44 379.233 -1701.98 -313.347 -2020.67 -1184.88C-2033.48 -1223.57 -2051.15 -1264.19 -2062.04 -1307.74C-2155.66 -1597.02 -1993.43 -1908.78 -1704.02 -2002.16C-1414.61 -2095.53 -1102.53 -1933.22 -1008.91 -1643.94C-1001.99 -1618.78 -990.212 -1591.71 -978.435 -1564.63C-772.79 -990.04 -324.397 -532.833 243.973 -308.716C812.343 -84.5987 1447.25 -114.643 1994.58 -392.327C2268.24 -531.169 2596.51 -424.158 2735.62 -150.594C2874.73 122.971 2767.86 450.955 2494.19 589.797C1661.58 1007.35 693.241 1057.33 -166.601 718.281Z" fill="#51284F"/>
</g>
</svg>
