<svg width="1440" height="962" viewBox="0 0 1440 962" fill="none" xmlns="http://www.w3.org/2000/svg">
<mask id="mask0" mask-type="alpha" maskUnits="userSpaceOnUse" x="0" y="0" width="1440" height="962">
<rect width="1440" height="962" fill="#C4C4C4"/>
</mask>
<g mask="url(#mask0)">
<path d="M-225.601 632.281C-1085.44 293.233 -1760.98 -399.347 -2079.67 -1270.88C-2092.48 -1309.57 -2110.15 -1350.19 -2121.04 -1393.74C-2214.66 -1683.01 -2052.43 -1994.78 -1763.02 -2088.16C-1473.61 -2181.53 -1161.53 -2019.22 -1067.91 -1729.94C-1060.99 -1704.78 -1049.21 -1677.71 -1037.44 -1650.63C-831.79 -1076.04 -383.397 -618.833 184.973 -394.716C753.343 -170.599 1388.25 -200.643 1935.58 -478.327C2209.24 -617.169 2537.51 -510.158 2676.62 -236.594C2815.73 36.9709 2708.86 364.955 2435.19 503.797C1602.58 921.346 634.241 971.33 -225.601 632.281Z" fill="#51284F"/>
</g>
</svg>
