<svg width="213" height="70" viewBox="0 0 213 70" xmlns="http://www.w3.org/2000/svg">
    <g fill="white">
        <g id="Logo ✅">
            <g id="Union">
                <path d="M158.11 30.3137C158.11 31.9743 159.462 33.2972 161.095 33.2972C162.756 33.2972 164.08 31.9743 164.08 30.3418V2.98352C164.08 1.32288 162.728 0 161.095 0C159.434 0 158.11 1.35103 158.11 2.98352V30.3137Z"/>
                <path d="M81.4909 33.3533C81.2656 33.3533 81.0122 33.3251 80.7869 33.2689C79.1819 32.8748 78.1963 31.2705 78.5905 29.6661C80.3927 22.2073 87.0944 17.0002 94.838 17.0002C102.582 17.0002 109.255 22.1792 111.085 29.6098C111.48 31.2142 110.494 32.8185 108.917 33.2126C107.312 33.6066 105.707 32.6215 105.313 31.0453C104.158 26.3448 99.7658 22.9673 94.8662 22.9673C89.9384 22.9673 85.5457 26.373 84.3912 31.0734C84.0533 32.4526 82.8425 33.3533 81.4909 33.3533Z"/>
                <path d="M145.664 31.6645C146.058 32.9592 147.241 33.7755 148.508 33.7755C148.729 33.7755 148.935 33.7469 149.128 33.7202C149.205 33.7095 149.28 33.6991 149.353 33.691C150.93 33.2125 151.831 31.5519 151.352 29.9757C149.043 22.3762 142.229 17.0565 134.739 17.0565C126.826 17.0565 119.899 22.4043 117.9 30.0601C117.506 31.6645 118.435 33.2688 120.04 33.691C121.645 34.0851 123.25 33.1281 123.672 31.5519C124.968 26.5137 129.529 22.9954 134.739 22.9954C139.638 22.9954 144.115 26.5419 145.664 31.6645Z"/>
                <path d="M3.8014 38.8982C5.90086 38.8982 7.60281 37.197 7.60281 35.0985C7.60281 32.9999 5.90086 31.2987 3.8014 31.2987C1.70195 31.2987 0 32.9999 0 35.0985C0 37.197 1.70195 38.8982 3.8014 38.8982Z"/>
                <path d="M151.183 41.3751C148.733 48.3554 142.144 53.0277 134.739 53.0277C130.628 53.0277 126.798 51.5922 123.757 49.1153V67.0164C123.757 68.6489 122.433 69.9999 120.772 69.9999C119.139 69.9999 117.787 68.6771 117.787 67.0164V40.2211C117.787 38.5604 119.111 37.2375 120.772 37.2375H121.082C122.321 37.2375 123.475 38.0256 123.898 39.2641C125.474 43.9082 129.839 47.0325 134.739 47.0325C139.61 47.0325 143.946 43.9364 145.552 39.3485C146.087 37.8005 147.804 36.9842 149.353 37.519C150.902 38.1382 151.718 39.827 151.183 41.3751Z"/>
                <path d="M18.5847 52.887C13.6006 52.887 8.84184 50.7479 5.51913 47.0044C5.47043 46.946 5.41836 46.8876 5.36525 46.828C5.26483 46.7154 5.16068 46.5985 5.06859 46.4696C4.02672 45.2031 4.22383 43.3172 5.49097 42.2758C6.7581 41.2344 8.64473 41.4314 9.68659 42.698C9.77107 42.8106 9.8837 42.9232 9.99634 43.0358C12.1645 45.5127 15.3183 46.92 18.6129 46.92C21.9074 46.92 25.033 45.5127 27.2294 43.0358C28.3276 41.7973 30.186 41.6848 31.425 42.7825C32.664 43.8802 32.7766 45.7378 31.6784 46.9763C28.3276 50.7197 23.5688 52.887 18.5847 52.887Z"/>
                <path d="M27.0886 27.4989C27.6799 28.2307 28.5246 28.5966 29.3976 28.5966C30.0734 28.5966 30.721 28.3714 31.256 27.9492C32.5232 26.9078 32.7203 25.022 31.6784 23.7554C31.5863 23.6265 31.4822 23.5097 31.3817 23.397C31.3287 23.3375 31.2765 23.279 31.2279 23.2206C27.9052 19.4771 23.1464 17.338 18.1623 17.338C13.1782 17.338 8.41944 19.4771 5.09674 23.2206C3.99855 24.459 4.11119 26.3167 5.35016 27.4144C6.58914 28.5121 8.4476 28.3995 9.54579 27.1611C11.7422 24.6842 14.8678 23.2769 18.1623 23.2769C21.4569 23.2769 24.6106 24.6842 26.7788 27.1611C26.8915 27.2737 27.0041 27.3863 27.0886 27.4989Z"/>
                <path d="M195.674 52.9432H195.167C187.789 52.9151 181.257 48.1865 178.948 41.178C178.441 39.63 179.285 37.9412 180.834 37.4346C182.383 36.9279 184.072 37.7723 184.579 39.3204C186.1 43.9082 190.352 47.0043 195.195 47.0043H195.364L195.37 47.0045C195.567 47.0109 200.748 47.1783 204.431 44.1334C205.698 43.092 207.585 43.2608 208.627 44.5274C209.669 45.794 209.5 47.6798 208.232 48.7212C203.558 52.6054 197.589 52.9432 195.674 52.9432Z"/>
                <path d="M212.597 35.3802C212.597 35.1832 212.569 34.9862 212.541 34.7891C212.597 34.5921 212.597 34.3951 212.597 34.1699C212.597 27.3304 207.979 17.1414 195.223 17.1414C187.592 17.1414 180.834 22.2359 178.751 29.4976C178.3 31.0738 179.201 32.7345 180.778 33.1848C182.355 33.6351 184.016 32.7063 184.467 31.1301C185.818 26.4015 190.239 23.1084 195.223 23.1084C199.334 23.1084 202.432 24.5439 204.431 27.3866C205.614 29.0473 206.233 30.9331 206.487 32.3967H189.704C188.043 32.3967 186.719 33.7477 186.719 35.3802C186.719 37.0409 188.071 38.3637 189.704 38.3637H209.612C211.274 38.3637 212.597 37.0409 212.597 35.3802Z"/>
                <path d="M42.3786 33.4378C42.1533 33.4378 41.8999 33.4096 41.6746 33.3533C40.0696 32.9593 39.084 31.3549 39.4783 29.7506C41.2804 22.2918 47.9821 17.0847 55.7257 17.0847C63.4693 17.0847 70.1429 22.2637 71.9732 29.6943C72.3674 31.2986 71.3819 32.903 69.805 33.297C68.2 33.6911 66.5949 32.706 66.2007 31.1298C65.0462 26.4293 60.6535 23.0518 55.7539 23.0518C50.8261 23.0518 46.4334 26.4575 45.2789 31.1579C44.9129 32.5371 43.702 33.4378 42.3786 33.4378Z"/>
                <path d="M39.6754 41.2063C41.7028 48.2429 48.3201 53.1685 55.7258 53.1685C63.1033 53.1685 69.7206 48.2429 71.7761 41.2344C72.2267 39.6582 71.3256 37.9976 69.7487 37.5473C68.1719 37.0969 66.5105 37.9976 66.06 39.5738C64.7365 44.0772 60.4846 47.2296 55.7258 47.2296C50.967 47.2296 46.715 44.0772 45.3916 39.5457C44.9411 37.9695 43.2797 37.0688 41.7028 37.5191C40.1259 37.9695 39.2249 39.6301 39.6754 41.2063Z"/>
                <path d="M78.7876 41.0938C80.815 48.1303 87.4323 53.056 94.838 53.056C102.244 53.056 108.833 48.1585 110.888 41.1219C111.339 39.5457 110.438 37.8851 108.861 37.4347C107.284 36.9844 105.623 37.8851 105.172 39.4613C103.849 43.9647 99.5968 47.1171 94.838 47.1171C90.0792 47.1171 85.8273 43.9647 84.5038 39.4331C84.0533 37.8569 82.3919 36.9562 80.815 37.4066C79.2382 37.8569 78.3371 39.5176 78.7876 41.0938Z"/>
                <path d="M172.753 52.9434C165.629 52.9434 159.546 47.8489 158.336 40.8123C158.054 39.1798 159.152 37.6599 160.757 37.3784C162.362 37.0969 163.911 38.1665 164.192 39.799C164.896 43.9084 168.585 47.0045 172.753 47.0045C174.386 47.0045 175.737 48.3274 175.737 49.988C175.737 51.6205 174.414 52.9434 172.753 52.9434Z"/>
            </g>
        </g>
    </g>
</svg>
